<?xml version="1.0" encoding="UTF-8" standalone="no"?>
<!-- Created with Inkscape (http://www.inkscape.org/) -->

<svg
   xmlns:dc="http://purl.org/dc/elements/1.1/"
   xmlns:cc="http://creativecommons.org/ns#"
   xmlns:rdf="http://www.w3.org/1999/02/22-rdf-syntax-ns#"
   xmlns:svg="http://www.w3.org/2000/svg"
   xmlns="http://www.w3.org/2000/svg"
   xmlns:sodipodi="http://sodipodi.sourceforge.net/DTD/sodipodi-0.dtd"
   xmlns:inkscape="http://www.inkscape.org/namespaces/inkscape"
   width="210mm"
   height="297mm"
   id="svg2"
   version="1.1"
   inkscape:version="0.47 r22583"
   sodipodi:docname="archi.svg"
   inkscape:export-filename="/home/agmk/archi.png"
   inkscape:export-xdpi="90"
   inkscape:export-ydpi="90">
  <defs
     id="defs4">
    <marker
       inkscape:stockid="Arrow1Lend"
       orient="auto"
       refY="0.0"
       refX="0.0"
       id="Arrow1Lend"
       style="overflow:visible;">
      <path
         id="path4072"
         d="M 0.0,0.0 L 5.0,-5.0 L -12.5,0.0 L 5.0,5.0 L 0.0,0.0 z "
         style="fill-rule:evenodd;stroke:#000000;stroke-width:1.0pt;marker-start:none;"
         transform="scale(0.8) rotate(180) translate(12.5,0)" />
    </marker>
    <inkscape:perspective
       sodipodi:type="inkscape:persp3d"
       inkscape:vp_x="0 : 526.18109 : 1"
       inkscape:vp_y="0 : 1000 : 0"
       inkscape:vp_z="744.09448 : 526.18109 : 1"
       inkscape:persp3d-origin="372.04724 : 350.78739 : 1"
       id="perspective10" />
  </defs>
  <sodipodi:namedview
     id="base"
     pagecolor="#ffffff"
     bordercolor="#666666"
     borderopacity="1.0"
     inkscape:pageopacity="0.0"
     inkscape:pageshadow="2"
     inkscape:zoom="0.98994949"
     inkscape:cx="334.58345"
     inkscape:cy="500.98042"
     inkscape:document-units="px"
     inkscape:current-layer="layer1"
     showgrid="false"
     inkscape:window-width="1280"
     inkscape:window-height="784"
     inkscape:window-x="0"
     inkscape:window-y="16"
     inkscape:window-maximized="0" />
  <metadata
     id="metadata7">
    <rdf:RDF>
      <cc:Work
         rdf:about="">
        <dc:format>image/svg+xml</dc:format>
        <dc:type
           rdf:resource="http://purl.org/dc/dcmitype/StillImage" />
        <dc:title />
      </cc:Work>
    </rdf:RDF>
  </metadata>
  <g
     inkscape:label="Calque 1"
     inkscape:groupmode="layer"
     id="layer1">
    <g
       id="g4520"
       transform="translate(4.0406102,-199.85051)">
      <rect
         y="216.96603"
         x="12.121831"
         height="161.6244"
         width="305.06607"
         id="rect4518"
         style="fill:#e3dbdb;fill-opacity:1;stroke:none" />
      <g
         transform="translate(65.073535,213.4915)"
         id="g4484">
        <g
           id="g4455"
           transform="translate(6.984011,0)">
          <g
             transform="translate(3.7038904,-293.95439)"
             id="g4387">
            <rect
               y="317.98129"
               x="61.619308"
               height="84.852814"
               width="61.619305"
               id="rect4343"
               style="fill:#ffccaa;fill-opacity:1;stroke:none" />
            <g
               id="g4379"
               transform="translate(2.0203051,0)">
              <rect
                 y="325.55743"
                 x="52.527931"
                 height="84.852814"
                 width="61.619305"
                 id="rect4341"
                 style="fill:#ffb380;fill-opacity:1;stroke:none" />
              <g
                 id="g4373">
                <path
                   style="fill:none;stroke:#000000;stroke-width:1px;stroke-linecap:butt;stroke-linejoin:miter;stroke-opacity:1"
                   d="m 63.639612,350.30616 39.395948,0"
                   id="path4347" />
                <path
                   id="path4359"
                   d="m 63.639612,362.09126 39.395948,0"
                   style="fill:none;stroke:#000000;stroke-width:1px;stroke-linecap:butt;stroke-linejoin:miter;stroke-opacity:1" />
                <path
                   style="fill:none;stroke:#000000;stroke-width:1px;stroke-linecap:butt;stroke-linejoin:miter;stroke-opacity:1"
                   d="m 63.63961,373.87638 39.39595,0"
                   id="path4361" />
                <path
                   id="path4363"
                   d="m 63.63961,385.6615 39.39595,0"
                   style="fill:none;stroke:#000000;stroke-width:1px;stroke-linecap:butt;stroke-linejoin:miter;stroke-opacity:1" />
              </g>
            </g>
          </g>
          <g
             id="g4397"
             transform="translate(88.219995,-293.95439)">
            <rect
               style="fill:#ffccaa;fill-opacity:1;stroke:none"
               id="rect4399"
               width="61.619305"
               height="84.852814"
               x="61.619308"
               y="317.98129" />
            <g
               transform="translate(2.0203051,0)"
               id="g4401">
              <rect
                 style="fill:#ffb380;fill-opacity:1;stroke:none"
                 id="rect4403"
                 width="61.619305"
                 height="84.852814"
                 x="52.527931"
                 y="325.55743" />
              <g
                 id="g4405">
                <path
                   id="path4407"
                   d="m 63.639612,350.30616 39.395948,0"
                   style="fill:none;stroke:#000000;stroke-width:1px;stroke-linecap:butt;stroke-linejoin:miter;stroke-opacity:1" />
                <path
                   style="fill:none;stroke:#000000;stroke-width:1px;stroke-linecap:butt;stroke-linejoin:miter;stroke-opacity:1"
                   d="m 63.639612,362.09126 39.395948,0"
                   id="path4409" />
                <path
                   id="path4411"
                   d="m 63.63961,373.87638 39.39595,0"
                   style="fill:none;stroke:#000000;stroke-width:1px;stroke-linecap:butt;stroke-linejoin:miter;stroke-opacity:1" />
                <path
                   style="fill:none;stroke:#000000;stroke-width:1px;stroke-linecap:butt;stroke-linejoin:miter;stroke-opacity:1"
                   d="m 63.63961,385.6615 39.39595,0"
                   id="path4413" />
              </g>
            </g>
          </g>
          <g
             id="g4433"
             transform="translate(-80.812204,-293.95439)">
            <rect
               style="fill:#ffccaa;fill-opacity:1;stroke:none"
               id="rect4435"
               width="61.619305"
               height="84.852814"
               x="61.619308"
               y="317.98129" />
            <g
               transform="translate(2.0203051,0)"
               id="g4437">
              <rect
                 style="fill:#ffb380;fill-opacity:1;stroke:none"
                 id="rect4439"
                 width="61.619305"
                 height="84.852814"
                 x="52.527931"
                 y="325.55743" />
              <g
                 id="g4441">
                <path
                   id="path4443"
                   d="m 63.639612,350.30616 39.395948,0"
                   style="fill:none;stroke:#000000;stroke-width:1px;stroke-linecap:butt;stroke-linejoin:miter;stroke-opacity:1" />
                <path
                   style="fill:none;stroke:#000000;stroke-width:1px;stroke-linecap:butt;stroke-linejoin:miter;stroke-opacity:1"
                   d="m 63.639612,362.09126 39.395948,0"
                   id="path4445" />
                <path
                   id="path4447"
                   d="m 63.63961,373.87638 39.39595,0"
                   style="fill:none;stroke:#000000;stroke-width:1px;stroke-linecap:butt;stroke-linejoin:miter;stroke-opacity:1" />
                <path
                   style="fill:none;stroke:#000000;stroke-width:1px;stroke-linecap:butt;stroke-linejoin:miter;stroke-opacity:1"
                   d="m 63.63961,385.6615 39.39595,0"
                   id="path4449" />
              </g>
            </g>
          </g>
        </g>
        <text
           xml:space="preserve"
           style="font-size:22px;font-style:normal;font-weight:normal;fill:#000000;fill-opacity:1;stroke:none;font-family:Bitstream Vera Sans"
           x="31.31473"
           y="144.23505"
           id="text4451"><tspan
             sodipodi:role="line"
             id="tspan4453"
             x="31.31473"
             y="144.23505">Code source</tspan></text>
      </g>
    </g>
    <flowRoot
       xml:space="preserve"
       id="flowRoot2818"
       style="fill:black;stroke:none;stroke-opacity:1;stroke-width:1px;stroke-linejoin:miter;stroke-linecap:butt;fill-opacity:1;font-family:Bitstream Vera Sans;font-style:normal;font-weight:normal;font-size:21"><flowRegion
         id="flowRegion2820"><rect
           id="rect2822"
           width="191.92899"
           height="70.710678"
           x="258.59906"
           y="363.43814"
           style="font-size:21" /></flowRegion><flowPara
         id="flowPara2824" /></flowRoot>    <rect
       style="font-size:15px;fill:#a02c2c;fill-opacity:1;stroke:none"
       id="rect2816"
       width="354.99997"
       height="101.01525"
       x="370.03381"
       y="17.115528" />
    <flowRoot
       xml:space="preserve"
       id="flowRoot2826"
       style="font-size:14.09244251px;font-style:normal;font-weight:normal;fill:#000000;fill-opacity:1;stroke:none;font-family:Bitstream Vera Sans"
       transform="matrix(2.0806925,0,0,3.4364327,12.607633,-1681.4225)"><flowRegion
         id="flowRegion2828"><rect
           id="rect2830"
           width="147.44684"
           height="19.091942"
           x="208.09143"
           y="498.79858"
           style="font-size:14.09244251px;stroke:none" /></flowRegion><flowPara
         id="flowPara2832">MiniHeptagon</flowPara></flowRoot>    <g
       id="g5494">
      <rect
         style="font-size:15px;fill:#d35f5f;fill-opacity:1;stroke:none"
         id="rect2876"
         width="354.99997"
         height="301.02545"
         x="370.03381"
         y="153.4653" />
      <g
         id="g5479">
        <g
           id="g2914"
           transform="matrix(0.87858013,0,0,1,234.24632,-204.3973)">
          <rect
             y="381.62091"
             x="189.90868"
             height="74.751289"
             width="333.35034"
             id="rect2886"
             style="fill:#a02c2c;fill-opacity:1;stroke:none" />
          <text
             transform="scale(0.72381705,1.3815646)"
             id="text2890"
             y="318.4303"
             x="425.93716"
             style="font-size:40.64736176px;font-style:normal;font-weight:normal;fill:#000000;fill-opacity:1;stroke:none;font-family:Bitstream Vera Sans"
             xml:space="preserve"><tspan
               y="318.4303"
               x="425.93716"
               id="tspan2892"
               sodipodi:role="line">Min<tspan
   id="tspan2912"
   style="font-size:40px">i</tspan>LS</tspan></text>
        </g>
        <g
           id="g2920"
           transform="matrix(0.87858013,0,0,1,234.24632,-201.89167)">
          <rect
             style="fill:#a02c2c;fill-opacity:1;stroke:none"
             id="rect2894"
             width="333.35034"
             height="74.751289"
             x="189.90868"
             y="468.49402" />
          <text
             xml:space="preserve"
             style="font-size:40px;font-style:normal;font-weight:normal;fill:#000000;fill-opacity:1;stroke:none;font-family:Bitstream Vera Sans"
             x="322.09674"
             y="381.86996"
             id="text2896"
             transform="scale(0.72381705,1.3815646)"><tspan
               sodipodi:role="line"
               id="tspan2898"
               x="322.09674"
               y="381.86996">MiniLS normalisé</tspan></text>
        </g>
        <g
           id="g2925"
           transform="matrix(0.87858013,0,0,1,223.10639,-204.3973)">
          <rect
             y="560.37842"
             x="202.58813"
             height="74.751289"
             width="333.35034"
             id="rect2900"
             style="fill:#a02c2c;fill-opacity:1;stroke:none" />
          <text
             transform="scale(0.72381705,1.3815646)"
             id="text2902"
             y="448.37747"
             x="319.30173"
             style="font-size:40px;font-style:normal;font-weight:normal;fill:#000000;fill-opacity:1;stroke:none;font-family:Bitstream Vera Sans"
             xml:space="preserve"><tspan
               y="448.37747"
               x="319.30173"
               id="tspan2904"
               sodipodi:role="line">MiniLS ordonnancé</tspan></text>
        </g>
      </g>
    </g>
    <g
       id="g2945"
       transform="matrix(0.88749996,0,0,1,292.09896,-252.66022)">
      <rect
         y="752.58704"
         x="87.813934"
         height="80.812195"
         width="400"
         id="rect2906"
         style="fill:#e9afaf;fill-opacity:1;stroke:none" />
      <text
         id="text2908"
         y="807.90527"
         x="248.49753"
         style="font-size:40px;font-style:normal;font-weight:normal;fill:#000000;fill-opacity:1;stroke:none;font-family:Bitstream Vera Sans"
         xml:space="preserve"><tspan
           y="807.90527"
           x="248.49753"
           id="tspan2910"
           sodipodi:role="line">Obc</tspan></text>
    </g>
    <flowRoot
       xml:space="preserve"
       id="flowRoot2976"
       style="font-size:35;font-style:normal;font-weight:normal;fill:#000000;fill-opacity:1;stroke:none;font-family:Bitstream Vera Sans"><flowRegion
         id="flowRegion2978"><rect
           id="rect2980"
           width="90.913727"
           height="56.568542"
           x="103.03556"
           y="840.23016"
           style="font-size:35" /></flowRegion><flowPara
         id="flowPara2982" /></flowRoot>    <g
       id="g4304">
      <g
         id="g4276">
        <g
           id="g4247">
          <g
             style="fill:#e3dbdb"
             transform="matrix(0.82798972,0,0,0.77309808,144.87216,66.484449)"
             id="g3054">
            <path
               style="fill:#e3dbdb;fill-opacity:1;stroke:none"
               id="path3050"
               d="m 362.64476,924.07281 c 0,6.77644 0,13.55288 0,20.32932 -0.72723,5.08227 1.82177,16.33172 -1.84029,1.52358 1.55199,2.80772 4.05244,6.64542 4.0212,9.98211 -0.0156,1.67018 -0.98811,-3.21202 -1.77155,-4.68714 -0.46578,-0.877 -2.6891,-2.90788 -1.92521,-2.2734 4.9955,4.14922 4.34277,4.06668 7.34807,9.40451 -2.1393,-4.35864 3.0908,3.82545 1.68124,3.88409 -1.94344,0.0808 -2.83422,-3.18928 -2.77466,-5.13348 0.0457,-1.49247 4.23592,3.96598 2.82543,3.47603 -1.70225,-0.5913 -5.32168,-4.82288 -3.82284,-3.82249 2.05277,1.3701 3.67225,3.29832 5.50837,4.94747 0.98796,2.02756 1.81161,4.14377 2.96389,6.08266 -0.37281,-0.99246 -0.74562,-1.98492 -1.11843,-2.97738 -0.0877,-0.1517 -0.33342,-0.6156 -0.26308,-0.45512 1.08571,2.47701 5.8847,6.57849 3.31038,7.40744 -2.60274,0.83809 -3.53155,-4.50898 -3.89565,-7.21898 -0.24423,-1.81785 2.33106,2.83251 3.49659,4.24877 0.57526,1.12988 1.42198,2.15868 1.72577,3.38964 0.64098,2.59727 1.02361,5.27873 1.0736,7.95346 0.0269,1.43856 -0.60074,2.81497 -0.84584,4.23275 -0.0368,0.21291 0.27757,-0.40178 0.21955,-0.60992 -1.22818,-4.40609 -3.41691,-8.58179 -4.04464,-13.11258 -0.17647,-1.27375 1.74681,1.88758 2.62022,2.83137 2.83374,3.83122 3.23402,3.91606 4.19136,11.17766 0.24733,1.87604 -0.5448,3.74515 -0.80499,5.61944 -0.0209,0.15028 -0.0651,0.60288 -0.038,0.45359 0.0747,-0.41222 0.14193,-0.82577 0.21289,-1.23865 0.75525,5.14173 -1.43043,9.98255 -3.20951,14.68114 -0.26472,0.6991 0.61611,-1.3688 0.81458,-2.0895 -0.60715,2.459 -1.2143,4.9181 -1.82145,7.3772 -0.23826,0.6193 -0.53654,1.2187 -0.71479,1.8578 -0.0676,0.2425 0.31574,-0.4095 0.37885,-0.6532 0.60388,-2.3316 -0.0376,-4.1683 0.19746,-3.5051 0.2737,0.7721 0.22018,1.6236 0.33027,2.4354 0.37195,2.2315 0.0799,4.4758 0.0896,6.7155 3.9e-4,-0.084 -7.8e-4,-0.3352 10e-4,-0.2514 0.0323,1.391 0.0276,2.7811 0.0224,4.1723 0.52996,7.6282 -4.23364,13.9621 -10.54832,17.6262 2.67442,-4.1418 3.43919,-10.6106 8.02326,-12.4254 3.7767,-1.4952 -3.48119,7.3537 -4.86169,11.1738 -0.60741,1.6808 2.06004,-2.5769 1.87501,-2.4311 -3.79742,2.9924 -8.04314,5.5673 -11.16317,9.2605 -1.42826,1.6907 3.93655,-2.024 5.90483,-3.036 0.92407,-1.2307 2.16736,-2.2769 2.77222,-3.692 0.84405,-1.9747 2.42535,-8.1999 1.4854,-6.269 -3.85838,7.9261 -5.65734,17.6713 -2.09343,6.3227 -1.07974,-3.8189 -3.31298,-7.4887 -3.23921,-11.4567 0.0446,-2.3973 2.51705,4.1198 3.3337,6.3742 0.52167,1.4401 1.50576,3.2998 0.62438,4.5525 -4.07407,5.7903 -10.99571,9.3154 -14.64883,15.3801 -1.24524,2.0673 4.69857,-1.2696 6.83052,-2.4006 1.0632,-0.564 1.69147,-1.7126 2.5372,-2.5689 0.83758,-2.6371 2.48836,-5.1444 2.51273,-7.9112 0.0252,-2.8607 -2.34467,-5.3879 -2.37042,-8.2487 -2.7e-4,-0.031 5.37434,9.6442 3.20101,10.1265 -9.86625,2.1896 -20.19927,0.7338 -30.29891,1.1007 0,0 30.01705,-4.1647 30.01705,-4.1647 l 0,0 c -10.00757,1.0305 -20.29633,0.5204 -30.0227,3.0915 -1.43202,0.3786 3.41419,10.7522 2.64636,7.7405 -3.8105,-14.9458 -5.02936,-4.3962 -0.96107,-18.4527 2.00161,-2.331 16.14244,-19.5712 12.69413,-8.4461 -1.93407,6.2399 -8.95787,9.6166 -12.43912,15.1445 -0.65477,1.0397 0.14653,2.498 0.61255,3.6349 0.93795,2.2882 12.88023,21.3004 -1.08931,-7.3386 1.11368,-3.7056 0.95265,-4.3952 2.56157,-7.0246 0.60228,-0.9843 2.01893,-4.0347 1.91217,-2.8857 -0.30826,3.3177 0.2215,7.8061 -2.54228,9.6672 -4.04828,2.7261 3.47396,-15.604 4.69951,-13.867 0.19539,-0.1204 25.27148,-16.3026 -1.59672,4.0688 -0.18114,0.1373 4.35889,-9.5863 4.14804,-7.0099 -0.52997,6.4759 -12.48564,25.8588 4.67754,-4.7506 -4.24458,2.7202 -5.75493,17.4047 -5.49836,9.0022 0.005,-1.2667 0.0185,-2.5339 -0.0238,-3.8002 0.002,-0.9541 0.0675,-5.8989 0.18401,-2.4476 0.006,0.1818 -0.0286,-0.3625 -0.043,-0.5438 -0.43849,-5.5585 -0.71508,-7.2998 0.88651,-12.8978 0.20454,-0.715 0.547,-2.78035 0.80203,-2.08181 0.40011,1.09596 -0.19238,2.32551 -0.28856,3.48821 0.15702,-1.84451 0.13358,-3.71337 0.47107,-5.53353 0.0242,-0.1307 3.6086,-13.18646 2.05218,-2.4913 -0.22272,1.53043 0.10989,-6.56542 -0.12765,-4.63791 0.17867,-2.74566 0.0521,-2.96877 0.48299,-5.00512 0.15878,-0.75047 0.43933,-3.00657 0.51396,-2.24313 0.42781,4.37657 -2.10936,6.96401 2.61766,11.13788 5.20456,3.71922 -8.03859,-12.17695 -4.70638,-17.36092 0.47803,-0.74368 -0.458,1.74746 -0.36641,2.62676 0.49431,4.74552 0.57317,4.4547 2.27259,7.33046 3.21093,3.12278 7.197,7.26308 -3.94643,-7.06058 -1.1518,-1.48051 2.04092,3.17549 2.73428,4.91843 0.32863,0.82612 -1.1775,-1.34769 -1.62048,-2.11856 -0.99635,-1.73387 -2.33983,-3.39644 -2.681,-5.36687 -0.30072,-1.73681 1.70234,3.08704 2.55351,4.63056 1.25739,0.92722 4.92571,3.83529 3.77217,2.78166 -2.05153,-1.87384 -4.29591,-3.52543 -6.47449,-5.24992 -0.35271,-0.27919 1.23796,1.29045 0.99453,0.91218 -16.30397,-25.33485 2.08248,4.65341 -6.14418,-9.35232 0.67353,1.02269 1.20049,2.15868 2.02059,3.06806 0.55819,0.61897 2.65618,2.00573 2.04448,1.43958 -7.87018,-7.28423 -4.01126,-1.43517 -9.2526,-11.9245 -0.2418,-0.4839 0.45403,1.44247 0.99074,1.28534 -1.28686,-3.41701 -2.65535,-6.80438 -3.86059,-10.25102 -0.67112,-1.91919 0.61037,-6.94556 0,-8.9651 0,-6.77644 0,-13.55288 0,-20.32932 0,0 30.30457,0 30.30457,0 z" />
            <path
               style="fill:#e3dbdb;fill-opacity:1;stroke:none"
               id="path3052"
               d="m 312.13714,984.68196 c 2.83811,2.60597 2.35695,2.24005 5.31529,4.65797 0.70221,0.57393 2.97663,2.01786 2.12996,1.69283 -1.30107,-0.49947 -2.59852,-1.20028 -3.53514,-2.23226 -0.30359,-0.33451 3.95006,1.44422 1.29809,0.35081 -0.13666,-0.0587 -0.55422,-0.21251 -0.40998,-0.1762 9.97785,2.51189 5.51333,0.62613 12.52247,4.95956 0.86845,0.53693 -1.60933,-1.32117 -2.57033,-1.66611 -1.63295,-0.58612 -6.60355,-1.93321 -5.09078,-1.08374 3.25,1.82498 6.94261,2.71523 10.41391,4.07285 5.48688,5.35583 0.5915,0.33122 -2.85645,-1.38541 -1.13092,-0.56304 -2.47319,-0.52373 -3.72204,-0.71449 -0.35111,-0.0536 -1.39635,-0.14571 -1.06541,-0.0168 14.33369,5.58527 16.67369,8.86423 13.50494,4.60999 -8.22274,-5.8483 -17.02065,-0.73764 6.31,17.21524 3.55085,2.7324 -1.02777,-9.0184 -2.73883,-13.1593 -0.65178,-1.5773 -5.0182,-4.55918 -4.01281,-3.18005 2.25574,3.09425 5.21698,5.60665 7.82548,8.40995 1.2692,-0.7161 3.05384,18.2083 -0.74675,14.9669 -28.92315,-24.66803 -16.366,-26.40565 -1.63826,-18.4114 1.68717,0.9158 5.34871,5.3194 3.62449,4.4755 -2.52606,-1.2365 -4.12758,-3.8213 -6.19137,-5.732 4.62552,3.7673 8.2228,5.1221 9.72736,10.9804 0.63575,2.4754 2.23268,9.6321 0.63008,7.6413 -2.19592,-2.728 -0.8209,-7.1835 -2.66036,-10.1635 -4.2572,-6.8966 -10.4672,-4.3686 -16.89833,-4.0104 7.20984,4.5681 15.24585,8.0388 21.6295,13.7043 1.24872,1.1083 0.31258,6.3839 -0.5828,4.9748 -3.15456,-4.9648 -5.9114,-10.5117 -6.64373,-16.3482 -0.42882,-3.4175 5.71401,4.3307 7.14678,7.4628 0.84628,1.8501 1.3282,3.8459 1.9923,5.7689 -1.03431,18.3006 -0.59997,2.5978 -9.73413,-10.1736 -0.97455,-1.3626 -6.33692,-1.7636 -4.96017,-0.8091 4.32829,3.0007 10.23379,3.5586 14.0941,7.1414 2.19637,2.0384 1.86905,5.6942 2.80357,8.5413 -2.35282,-3.9431 -6.10578,-7.3376 -7.05846,-11.8294 -0.81382,-3.8372 6.53132,5.1681 7.67483,8.9203 0.71384,2.3422 2.68934,9.2479 1.30348,7.2293 -10.68235,-15.5604 -6.54748,-12.6349 -3.44573,-10.4772 0.0162,0.01 0.0324,0.017 0.0486,0.025 -0.80615,-0.5576 -1.6123,-1.1152 -2.41845,-1.6729 2.4927,5.6257 3.20825,12.4464 7.47811,16.877 2.9922,3.1049 -1.48409,-8.5919 -3.27411,-12.5147 -1.47402,-3.2304 -7.50658,-3.641 -9.88587,-4.1593 -14.9045,4.6181 -1.28003,-0.5736 -1.6493,-0.1627 -2.89731,3.2239 -5.89677,6.9845 -10.03708,8.2673 -2.64468,0.8194 3.00305,-4.6967 4.92998,-6.6849 1.69911,-1.7531 6.25328,-3.6055 3.38917,-2.4039 -0.0182,0.1492 0.42881,-0.5687 0.31246,-0.4337 -8.14344,9.4473 6.58198,-8.5333 7.75147,-9.9182 5.26968,-5.1254 11.46595,-7.7166 18.79403,-8.0054 1.73172,-0.068 3.72067,-0.53749 5.18452,0.3903 1.67178,1.0594 -4.14985,0.056 -5.33829,-0.1411 -5.13957,5.3454 6.49069,-4.10617 5.25126,-3.346 -0.38226,0.23445 -0.5834,0.72506 -0.99299,0.90758 -0.24664,0.1099 0.24472,-0.502 0.45708,-0.66877 2.53576,-1.99135 5.17024,-3.85367 7.75536,-5.7805 5.19452,-1.92094 9.43891,-1.13194 14.55617,-0.62664 0.48926,0.0483 1.95895,-0.0318 1.47407,0.0495 -1.771,0.29679 -3.54074,0.60108 -5.31111,0.90162 -2.71182,2.48012 -4.47434,7.12221 -8.13544,7.44037 -3.09504,0.26896 3.61811,-5.09794 5.86532,-7.24309 4.69506,-4.48184 12.05398,-4.29727 17.73121,-2.32989 0.5554,0.24016 1.11081,0.48031 1.66621,0.72046 0,0 -13.22362,27.26726 -13.22362,27.26726 l 0,0 c 0.3933,0.1616 0.78661,0.3231 1.17991,0.4847 3.73655,0.5445 8.97156,0.6981 11.60797,-2.5031 1.31291,-1.5942 4.97225,-6.4838 3.34053,-5.2179 -3.46538,2.6885 -5.99608,6.4027 -8.99412,9.6041 -2.0065,0.3929 -3.99532,0.8904 -6.01951,1.1787 -2.02457,0.2883 -12.86386,-0.5205 -3.65776,-1.9332 1.64532,-1.5183 3.167,-3.1827 4.93596,-4.555 0.52601,-0.4081 -0.74063,1.1087 -1.15999,1.6257 -3.26114,4.0209 -7.21196,7.4568 -11.99454,9.5512 -8.45559,4.612 -4.38777,3.3437 -14.80563,4.6778 -0.17286,0.022 0.32779,-0.1221 0.48039,-0.2062 1.13687,-0.6269 1.86094,-1.5707 2.50599,-2.6899 -0.50688,0.6002 -6.11841,7.2497 -6.16823,7.2834 -0.68165,0.4609 1.32029,-2.9888 0.83843,-2.3218 -2.83474,3.924 -3.87991,7.7289 -8.01576,10.3118 -8.33772,5.4689 -1.41065,1.0229 -0.83327,0.315 1.2006,-1.4722 4.51386,-5.9532 2.9486,-4.8768 -4.0968,2.8172 -7.43886,6.6234 -10.80702,10.2808 -0.52679,0.572 1.43814,-0.5922 2.1572,-0.8883 -2.37327,0.6574 -4.74654,1.3147 -7.11981,1.972 -3.56419,-0.6583 -10.28845,-0.9451 -12.61273,-4.9273 -4.08781,-7.0035 -10.1839,-32.8751 2.90512,1.0205 0.3129,0.8103 -3.14365,-2.2363 -3.58427,-2.6165 -5.99905,-5.6588 7.74565,7.6901 -6.33146,-13.2726 -1.25687,-1.8717 0.68034,4.4727 1.33165,6.6311 0.72565,2.4047 6.49902,7.5026 5.42141,5.2337 -2.19532,-4.6223 -5.75724,-8.4613 -8.63586,-12.692 6.17282,15.8133 -2.95416,-2.7335 15.67381,12.4642 1.80483,1.4724 -5.40802,1.0848 -6.95713,-0.6547 -11.15161,-12.522 -10.65334,-27.9426 -10.65095,-14.0521 0.44589,1.2095 1.23546,5.0056 2.88932,6.3976 1.05482,0.8879 3.79164,3.7229 3.35875,2.4139 -2.00021,-6.0485 -4.9327,-11.8022 -8.26,-17.2349 -0.59409,-0.9701 -1.1251,2.731 -0.20954,3.406 6.66694,4.9152 14.37866,8.2271 21.56799,12.3407 -7.55774,0.6623 -13.92861,3.5218 -19.38402,-4.0938 -2.45945,-3.4333 -2.35321,-8.1494 -4.15344,-11.9698 -0.72333,-1.5351 0.3194,3.4118 0.87615,5.0148 1.49965,4.3178 3.67086,4.6506 7.54826,7.2727 -2.76675,-2.1957 -5.35042,-4.6444 -8.30027,-6.5873 -1.08342,-0.7136 1.44429,2.3567 2.64023,2.8594 16.51154,6.9406 20.31424,0.9505 -5.0437,-19.7434 -3.2903,-2.6851 -1.90883,12.4981 -0.49593,12.731 2.30317,2.1381 5.47379,3.6188 6.90953,6.4143 1.0472,2.039 -4.57234,-1.908 -5.63754,-3.9376 -2.36991,-4.5157 -8.85791,-16.6996 -4.1564,-14.7239 9.31596,3.9148 19.10815,25.2673 4.76518,14.4926 -4.37666,-3.5649 -9.42295,-7.0775 9.43671,1.1612 1.10529,0.4829 -2.39336,0.4226 -3.59869,0.3778 -7.30539,-0.271 -5.77732,-1.1466 -13.26604,-5.2879 -0.37856,-0.2093 0.6703,0.547 1.00545,0.8205 2.80839,0.8315 5.94026,0.9441 8.42517,2.4945 1.76996,1.1043 -4.18414,-0.4264 -6.16406,-1.0837 -1.71389,-0.5691 -3.21178,-1.6546 -4.78004,-2.55 -0.72516,-0.4141 1.4354,0.9142 2.24846,1.1045 1.12561,0.2635 9.59791,0.5614 -0.36377,0.1433 -5.18574,-1.0724 -6.77261,-1.434 -12.08604,-4.4068 -1.09011,-0.61 -1.96615,-1.5422 -2.9208,-2.3478 -5.49733,-4.6391 -4.21545,-3.6404 -9.83699,-9.4842 0,0 24.24366,-18.18276 24.24366,-18.18276 z" />
          </g>
          <g
             transform="matrix(0.65056335,0,0,0.77309808,346.17438,49.303615)"
             id="g3019">
            <path
               sodipodi:type="arc"
               style="fill:#f4d7d7;fill-opacity:1;stroke:none"
               id="path2974"
               sodipodi:cx="142.4315"
               sodipodi:cy="854.37225"
               sodipodi:rx="89.90358"
               sodipodi:ry="86.873116"
               d="m 232.33508,854.37225 c 0,47.9787 -40.2512,86.87312 -89.90358,86.87312 -49.652373,0 -89.903576,-38.89442 -89.903576,-86.87312 0,-47.97869 40.251203,-86.87311 89.903576,-86.87311 47.0913,0 86.20316,35.11323 89.6609,80.49434"
               sodipodi:start="0"
               sodipodi:end="6.2096929"
               sodipodi:open="true"
               transform="matrix(0.79775282,0,0,0.76744185,23.887203,200.0929)" />
            <g
               id="g3014">
              <g
                 id="g3010">
                <text
                   xml:space="preserve"
                   style="font-size:35px;font-style:normal;font-weight:normal;fill:#000000;fill-opacity:1;stroke:none;font-family:Bitstream Vera Sans"
                   x="125.25892"
                   y="868.5144"
                   id="text2984"><tspan
                     sodipodi:role="line"
                     id="tspan2986"
                     x="125.25892"
                     y="868.5144">C</tspan></text>
              </g>
            </g>
          </g>
        </g>
        <g
           id="g4258">
          <g
             transform="matrix(0.65056335,0,0,0.77309808,337.15438,49.303615)"
             id="g3005">
            <path
               transform="matrix(0.79775282,0,0,0.76744185,209.75527,200.0929)"
               sodipodi:open="true"
               sodipodi:end="6.2096929"
               sodipodi:start="0"
               d="m 232.33508,854.37225 c 0,47.9787 -40.2512,86.87312 -89.90358,86.87312 -49.652373,0 -89.903576,-38.89442 -89.903576,-86.87312 0,-47.97869 40.251203,-86.87311 89.903576,-86.87311 47.0913,0 86.20316,35.11323 89.6609,80.49434"
               sodipodi:ry="86.873116"
               sodipodi:rx="89.90358"
               sodipodi:cy="854.37225"
               sodipodi:cx="142.4315"
               id="path2988"
               style="fill:#f4d7d7;fill-opacity:1;stroke:none"
               sodipodi:type="arc" />
            <text
               id="text2990"
               y="868.82202"
               x="265.37747"
               style="font-size:35px;font-style:normal;font-weight:normal;fill:#000000;fill-opacity:1;stroke:none;font-family:Bitstream Vera Sans"
               xml:space="preserve"><tspan
                 y="868.82202"
                 x="265.37747"
                 id="tspan2992"
                 sodipodi:role="line">OCaml</tspan></text>
          </g>
          <g
             style="fill:#e3dbdb"
             transform="matrix(0.82798972,0,0,0.77309808,256.77111,66.484449)"
             id="g3058">
            <path
               d="m 362.64476,924.07281 c 0,6.77644 0,13.55288 0,20.32932 -0.72723,5.08227 1.82177,16.33172 -1.84029,1.52358 1.55199,2.80772 4.05244,6.64542 4.0212,9.98211 -0.0156,1.67018 -0.98811,-3.21202 -1.77155,-4.68714 -0.46578,-0.877 -2.6891,-2.90788 -1.92521,-2.2734 4.9955,4.14922 4.34277,4.06668 7.34807,9.40451 -2.1393,-4.35864 3.0908,3.82545 1.68124,3.88409 -1.94344,0.0808 -2.83422,-3.18928 -2.77466,-5.13348 0.0457,-1.49247 4.23592,3.96598 2.82543,3.47603 -1.70225,-0.5913 -5.32168,-4.82288 -3.82284,-3.82249 2.05277,1.3701 3.67225,3.29832 5.50837,4.94747 0.98796,2.02756 1.81161,4.14377 2.96389,6.08266 -0.37281,-0.99246 -0.74562,-1.98492 -1.11843,-2.97738 -0.0877,-0.1517 -0.33342,-0.6156 -0.26308,-0.45512 1.08571,2.47701 5.8847,6.57849 3.31038,7.40744 -2.60274,0.83809 -3.53155,-4.50898 -3.89565,-7.21898 -0.24423,-1.81785 2.33106,2.83251 3.49659,4.24877 0.57526,1.12988 1.42198,2.15868 1.72577,3.38964 0.64098,2.59727 1.02361,5.27873 1.0736,7.95346 0.0269,1.43856 -0.60074,2.81497 -0.84584,4.23275 -0.0368,0.21291 0.27757,-0.40178 0.21955,-0.60992 -1.22818,-4.40609 -3.41691,-8.58179 -4.04464,-13.11258 -0.17647,-1.27375 1.74681,1.88758 2.62022,2.83137 2.83374,3.83122 3.23402,3.91606 4.19136,11.17766 0.24733,1.87604 -0.5448,3.74515 -0.80499,5.61944 -0.0209,0.15028 -0.0651,0.60288 -0.038,0.45359 0.0747,-0.41222 0.14193,-0.82577 0.21289,-1.23865 0.75525,5.14173 -1.43043,9.98255 -3.20951,14.68114 -0.26472,0.6991 0.61611,-1.3688 0.81458,-2.0895 -0.60715,2.459 -1.2143,4.9181 -1.82145,7.3772 -0.23826,0.6193 -0.53654,1.2187 -0.71479,1.8578 -0.0676,0.2425 0.31574,-0.4095 0.37885,-0.6532 0.60388,-2.3316 -0.0376,-4.1683 0.19746,-3.5051 0.2737,0.7721 0.22018,1.6236 0.33027,2.4354 0.37195,2.2315 0.0799,4.4758 0.0896,6.7155 3.9e-4,-0.084 -7.8e-4,-0.3352 10e-4,-0.2514 0.0323,1.391 0.0276,2.7811 0.0224,4.1723 0.52996,7.6282 -4.23364,13.9621 -10.54832,17.6262 2.67442,-4.1418 3.43919,-10.6106 8.02326,-12.4254 3.7767,-1.4952 -3.48119,7.3537 -4.86169,11.1738 -0.60741,1.6808 2.06004,-2.5769 1.87501,-2.4311 -3.79742,2.9924 -8.04314,5.5673 -11.16317,9.2605 -1.42826,1.6907 3.93655,-2.024 5.90483,-3.036 0.92407,-1.2307 2.16736,-2.2769 2.77222,-3.692 0.84405,-1.9747 2.42535,-8.1999 1.4854,-6.269 -3.85838,7.9261 -5.65734,17.6713 -2.09343,6.3227 -1.07974,-3.8189 -3.31298,-7.4887 -3.23921,-11.4567 0.0446,-2.3973 2.51705,4.1198 3.3337,6.3742 0.52167,1.4401 1.50576,3.2998 0.62438,4.5525 -4.07407,5.7903 -10.99571,9.3154 -14.64883,15.3801 -1.24524,2.0673 4.69857,-1.2696 6.83052,-2.4006 1.0632,-0.564 1.69147,-1.7126 2.5372,-2.5689 0.83758,-2.6371 2.48836,-5.1444 2.51273,-7.9112 0.0252,-2.8607 -2.34467,-5.3879 -2.37042,-8.2487 -2.7e-4,-0.031 5.37434,9.6442 3.20101,10.1265 -9.86625,2.1896 -20.19927,0.7338 -30.29891,1.1007 0,0 30.01705,-4.1647 30.01705,-4.1647 l 0,0 c -10.00757,1.0305 -20.29633,0.5204 -30.0227,3.0915 -1.43202,0.3786 3.41419,10.7522 2.64636,7.7405 -3.8105,-14.9458 -5.02936,-4.3962 -0.96107,-18.4527 2.00161,-2.331 16.14244,-19.5712 12.69413,-8.4461 -1.93407,6.2399 -8.95787,9.6166 -12.43912,15.1445 -0.65477,1.0397 0.14653,2.498 0.61255,3.6349 0.93795,2.2882 12.88023,21.3004 -1.08931,-7.3386 1.11368,-3.7056 0.95265,-4.3952 2.56157,-7.0246 0.60228,-0.9843 2.01893,-4.0347 1.91217,-2.8857 -0.30826,3.3177 0.2215,7.8061 -2.54228,9.6672 -4.04828,2.7261 3.47396,-15.604 4.69951,-13.867 0.19539,-0.1204 25.27148,-16.3026 -1.59672,4.0688 -0.18114,0.1373 4.35889,-9.5863 4.14804,-7.0099 -0.52997,6.4759 -12.48564,25.8588 4.67754,-4.7506 -4.24458,2.7202 -5.75493,17.4047 -5.49836,9.0022 0.005,-1.2667 0.0185,-2.5339 -0.0238,-3.8002 0.002,-0.9541 0.0675,-5.8989 0.18401,-2.4476 0.006,0.1818 -0.0286,-0.3625 -0.043,-0.5438 -0.43849,-5.5585 -0.71508,-7.2998 0.88651,-12.8978 0.20454,-0.715 0.547,-2.78035 0.80203,-2.08181 0.40011,1.09596 -0.19238,2.32551 -0.28856,3.48821 0.15702,-1.84451 0.13358,-3.71337 0.47107,-5.53353 0.0242,-0.1307 3.6086,-13.18646 2.05218,-2.4913 -0.22272,1.53043 0.10989,-6.56542 -0.12765,-4.63791 0.17867,-2.74566 0.0521,-2.96877 0.48299,-5.00512 0.15878,-0.75047 0.43933,-3.00657 0.51396,-2.24313 0.42781,4.37657 -2.10936,6.96401 2.61766,11.13788 5.20456,3.71922 -8.03859,-12.17695 -4.70638,-17.36092 0.47803,-0.74368 -0.458,1.74746 -0.36641,2.62676 0.49431,4.74552 0.57317,4.4547 2.27259,7.33046 3.21093,3.12278 7.197,7.26308 -3.94643,-7.06058 -1.1518,-1.48051 2.04092,3.17549 2.73428,4.91843 0.32863,0.82612 -1.1775,-1.34769 -1.62048,-2.11856 -0.99635,-1.73387 -2.33983,-3.39644 -2.681,-5.36687 -0.30072,-1.73681 1.70234,3.08704 2.55351,4.63056 1.25739,0.92722 4.92571,3.83529 3.77217,2.78166 -2.05153,-1.87384 -4.29591,-3.52543 -6.47449,-5.24992 -0.35271,-0.27919 1.23796,1.29045 0.99453,0.91218 -16.30397,-25.33485 2.08248,4.65341 -6.14418,-9.35232 0.67353,1.02269 1.20049,2.15868 2.02059,3.06806 0.55819,0.61897 2.65618,2.00573 2.04448,1.43958 -7.87018,-7.28423 -4.01126,-1.43517 -9.2526,-11.9245 -0.2418,-0.4839 0.45403,1.44247 0.99074,1.28534 -1.28686,-3.41701 -2.65535,-6.80438 -3.86059,-10.25102 -0.67112,-1.91919 0.61037,-6.94556 0,-8.9651 0,-6.77644 0,-13.55288 0,-20.32932 0,0 30.30457,0 30.30457,0 z"
               id="path3060"
               style="fill:#e3dbdb;fill-opacity:1;stroke:none" />
            <path
               d="m 312.13714,984.68196 c 2.83811,2.60597 2.35695,2.24005 5.31529,4.65797 0.70221,0.57393 2.97663,2.01786 2.12996,1.69283 -1.30107,-0.49947 -2.59852,-1.20028 -3.53514,-2.23226 -0.30359,-0.33451 3.95006,1.44422 1.29809,0.35081 -0.13666,-0.0587 -0.55422,-0.21251 -0.40998,-0.1762 9.97785,2.51189 5.51333,0.62613 12.52247,4.95956 0.86845,0.53693 -1.60933,-1.32117 -2.57033,-1.66611 -1.63295,-0.58612 -6.60355,-1.93321 -5.09078,-1.08374 3.25,1.82498 6.94261,2.71523 10.41391,4.07285 5.48688,5.35583 0.5915,0.33122 -2.85645,-1.38541 -1.13092,-0.56304 -2.47319,-0.52373 -3.72204,-0.71449 -0.35111,-0.0536 -1.39635,-0.14571 -1.06541,-0.0168 14.33369,5.58527 16.67369,8.86423 13.50494,4.60999 -8.22274,-5.8483 -17.02065,-0.73764 6.31,17.21524 3.55085,2.7324 -1.02777,-9.0184 -2.73883,-13.1593 -0.65178,-1.5773 -5.0182,-4.55918 -4.01281,-3.18005 2.25574,3.09425 5.21698,5.60665 7.82548,8.40995 1.2692,-0.7161 3.05384,18.2083 -0.74675,14.9669 -28.92315,-24.66803 -16.366,-26.40565 -1.63826,-18.4114 1.68717,0.9158 5.34871,5.3194 3.62449,4.4755 -2.52606,-1.2365 -4.12758,-3.8213 -6.19137,-5.732 4.62552,3.7673 8.2228,5.1221 9.72736,10.9804 0.63575,2.4754 2.23268,9.6321 0.63008,7.6413 -2.19592,-2.728 -0.8209,-7.1835 -2.66036,-10.1635 -4.2572,-6.8966 -10.4672,-4.3686 -16.89833,-4.0104 7.20984,4.5681 15.24585,8.0388 21.6295,13.7043 1.24872,1.1083 0.31258,6.3839 -0.5828,4.9748 -3.15456,-4.9648 -5.9114,-10.5117 -6.64373,-16.3482 -0.42882,-3.4175 5.71401,4.3307 7.14678,7.4628 0.84628,1.8501 1.3282,3.8459 1.9923,5.7689 -1.03431,18.3006 -0.59997,2.5978 -9.73413,-10.1736 -0.97455,-1.3626 -6.33692,-1.7636 -4.96017,-0.8091 4.32829,3.0007 10.23379,3.5586 14.0941,7.1414 2.19637,2.0384 1.86905,5.6942 2.80357,8.5413 -2.35282,-3.9431 -6.10578,-7.3376 -7.05846,-11.8294 -0.81382,-3.8372 6.53132,5.1681 7.67483,8.9203 0.71384,2.3422 2.68934,9.2479 1.30348,7.2293 -10.68235,-15.5604 -6.54748,-12.6349 -3.44573,-10.4772 0.0162,0.01 0.0324,0.017 0.0486,0.025 -0.80615,-0.5576 -1.6123,-1.1152 -2.41845,-1.6729 2.4927,5.6257 3.20825,12.4464 7.47811,16.877 2.9922,3.1049 -1.48409,-8.5919 -3.27411,-12.5147 -1.47402,-3.2304 -7.50658,-3.641 -9.88587,-4.1593 -14.9045,4.6181 -1.28003,-0.5736 -1.6493,-0.1627 -2.89731,3.2239 -5.89677,6.9845 -10.03708,8.2673 -2.64468,0.8194 3.00305,-4.6967 4.92998,-6.6849 1.69911,-1.7531 6.25328,-3.6055 3.38917,-2.4039 -0.0182,0.1492 0.42881,-0.5687 0.31246,-0.4337 -8.14344,9.4473 6.58198,-8.5333 7.75147,-9.9182 5.26968,-5.1254 11.46595,-7.7166 18.79403,-8.0054 1.73172,-0.068 3.72067,-0.53749 5.18452,0.3903 1.67178,1.0594 -4.14985,0.056 -5.33829,-0.1411 -5.13957,5.3454 6.49069,-4.10617 5.25126,-3.346 -0.38226,0.23445 -0.5834,0.72506 -0.99299,0.90758 -0.24664,0.1099 0.24472,-0.502 0.45708,-0.66877 2.53576,-1.99135 5.17024,-3.85367 7.75536,-5.7805 5.19452,-1.92094 9.43891,-1.13194 14.55617,-0.62664 0.48926,0.0483 1.95895,-0.0318 1.47407,0.0495 -1.771,0.29679 -3.54074,0.60108 -5.31111,0.90162 -2.71182,2.48012 -4.47434,7.12221 -8.13544,7.44037 -3.09504,0.26896 3.61811,-5.09794 5.86532,-7.24309 4.69506,-4.48184 12.05398,-4.29727 17.73121,-2.32989 0.5554,0.24016 1.11081,0.48031 1.66621,0.72046 0,0 -13.22362,27.26726 -13.22362,27.26726 l 0,0 c 0.3933,0.1616 0.78661,0.3231 1.17991,0.4847 3.73655,0.5445 8.97156,0.6981 11.60797,-2.5031 1.31291,-1.5942 4.97225,-6.4838 3.34053,-5.2179 -3.46538,2.6885 -5.99608,6.4027 -8.99412,9.6041 -2.0065,0.3929 -3.99532,0.8904 -6.01951,1.1787 -2.02457,0.2883 -12.86386,-0.5205 -3.65776,-1.9332 1.64532,-1.5183 3.167,-3.1827 4.93596,-4.555 0.52601,-0.4081 -0.74063,1.1087 -1.15999,1.6257 -3.26114,4.0209 -7.21196,7.4568 -11.99454,9.5512 -8.45559,4.612 -4.38777,3.3437 -14.80563,4.6778 -0.17286,0.022 0.32779,-0.1221 0.48039,-0.2062 1.13687,-0.6269 1.86094,-1.5707 2.50599,-2.6899 -0.50688,0.6002 -6.11841,7.2497 -6.16823,7.2834 -0.68165,0.4609 1.32029,-2.9888 0.83843,-2.3218 -2.83474,3.924 -3.87991,7.7289 -8.01576,10.3118 -8.33772,5.4689 -1.41065,1.0229 -0.83327,0.315 1.2006,-1.4722 4.51386,-5.9532 2.9486,-4.8768 -4.0968,2.8172 -7.43886,6.6234 -10.80702,10.2808 -0.52679,0.572 1.43814,-0.5922 2.1572,-0.8883 -2.37327,0.6574 -4.74654,1.3147 -7.11981,1.972 -3.56419,-0.6583 -10.28845,-0.9451 -12.61273,-4.9273 -4.08781,-7.0035 -10.1839,-32.8751 2.90512,1.0205 0.3129,0.8103 -3.14365,-2.2363 -3.58427,-2.6165 -5.99905,-5.6588 7.74565,7.6901 -6.33146,-13.2726 -1.25687,-1.8717 0.68034,4.4727 1.33165,6.6311 0.72565,2.4047 6.49902,7.5026 5.42141,5.2337 -2.19532,-4.6223 -5.75724,-8.4613 -8.63586,-12.692 6.17282,15.8133 -2.95416,-2.7335 15.67381,12.4642 1.80483,1.4724 -5.40802,1.0848 -6.95713,-0.6547 -11.15161,-12.522 -10.65334,-27.9426 -10.65095,-14.0521 0.44589,1.2095 1.23546,5.0056 2.88932,6.3976 1.05482,0.8879 3.79164,3.7229 3.35875,2.4139 -2.00021,-6.0485 -4.9327,-11.8022 -8.26,-17.2349 -0.59409,-0.9701 -1.1251,2.731 -0.20954,3.406 6.66694,4.9152 14.37866,8.2271 21.56799,12.3407 -7.55774,0.6623 -13.92861,3.5218 -19.38402,-4.0938 -2.45945,-3.4333 -2.35321,-8.1494 -4.15344,-11.9698 -0.72333,-1.5351 0.3194,3.4118 0.87615,5.0148 1.49965,4.3178 3.67086,4.6506 7.54826,7.2727 -2.76675,-2.1957 -5.35042,-4.6444 -8.30027,-6.5873 -1.08342,-0.7136 1.44429,2.3567 2.64023,2.8594 16.51154,6.9406 20.31424,0.9505 -5.0437,-19.7434 -3.2903,-2.6851 -1.90883,12.4981 -0.49593,12.731 2.30317,2.1381 5.47379,3.6188 6.90953,6.4143 1.0472,2.039 -4.57234,-1.908 -5.63754,-3.9376 -2.36991,-4.5157 -8.85791,-16.6996 -4.1564,-14.7239 9.31596,3.9148 19.10815,25.2673 4.76518,14.4926 -4.37666,-3.5649 -9.42295,-7.0775 9.43671,1.1612 1.10529,0.4829 -2.39336,0.4226 -3.59869,0.3778 -7.30539,-0.271 -5.77732,-1.1466 -13.26604,-5.2879 -0.37856,-0.2093 0.6703,0.547 1.00545,0.8205 2.80839,0.8315 5.94026,0.9441 8.42517,2.4945 1.76996,1.1043 -4.18414,-0.4264 -6.16406,-1.0837 -1.71389,-0.5691 -3.21178,-1.6546 -4.78004,-2.55 -0.72516,-0.4141 1.4354,0.9142 2.24846,1.1045 1.12561,0.2635 9.59791,0.5614 -0.36377,0.1433 -5.18574,-1.0724 -6.77261,-1.434 -12.08604,-4.4068 -1.09011,-0.61 -1.96615,-1.5422 -2.9208,-2.3478 -5.49733,-4.6391 -4.21545,-3.6404 -9.83699,-9.4842 0,0 24.24366,-18.18276 24.24366,-18.18276 z"
               id="path3062"
               style="fill:#e3dbdb;fill-opacity:1;stroke:none" />
          </g>
        </g>
        <g
           id="g4267">
          <g
             transform="matrix(0.65056335,0,0,0.77309808,332.07737,48.522665)"
             id="g3000">
            <path
               sodipodi:type="arc"
               style="fill:#f4d7d7;fill-opacity:1;stroke:none"
               id="path2994"
               sodipodi:cx="142.4315"
               sodipodi:cy="854.37225"
               sodipodi:rx="89.90358"
               sodipodi:ry="86.873116"
               d="m 232.33508,854.37225 c 0,47.9787 -40.2512,86.87312 -89.90358,86.87312 -49.652373,0 -89.903576,-38.89442 -89.903576,-86.87312 0,-47.97869 40.251203,-86.87311 89.903576,-86.87311 47.0913,0 86.20316,35.11323 89.6609,80.49434"
               sodipodi:start="0"
               sodipodi:end="6.2096929"
               sodipodi:open="true"
               transform="matrix(0.79775282,0,0,0.76744185,389.56242,202.11321)" />
            <text
               xml:space="preserve"
               style="font-size:35px;font-style:normal;font-weight:normal;fill:#000000;fill-opacity:1;stroke:none;font-family:Bitstream Vera Sans"
               x="468.7088"
               y="867.0484"
               id="text2996"><tspan
                 sodipodi:role="line"
                 id="tspan2998"
                 x="468.7088"
                 y="867.0484">Java</tspan></text>
          </g>
          <g
             style="fill:#e3dbdb"
             id="g3064"
             transform="matrix(0.82798972,0,0,0.77309808,368.67004,65.703499)">
            <path
               style="fill:#e3dbdb;fill-opacity:1;stroke:none"
               id="path3066"
               d="m 362.64476,924.07281 c 0,6.77644 0,13.55288 0,20.32932 -0.72723,5.08227 1.82177,16.33172 -1.84029,1.52358 1.55199,2.80772 4.05244,6.64542 4.0212,9.98211 -0.0156,1.67018 -0.98811,-3.21202 -1.77155,-4.68714 -0.46578,-0.877 -2.6891,-2.90788 -1.92521,-2.2734 4.9955,4.14922 4.34277,4.06668 7.34807,9.40451 -2.1393,-4.35864 3.0908,3.82545 1.68124,3.88409 -1.94344,0.0808 -2.83422,-3.18928 -2.77466,-5.13348 0.0457,-1.49247 4.23592,3.96598 2.82543,3.47603 -1.70225,-0.5913 -5.32168,-4.82288 -3.82284,-3.82249 2.05277,1.3701 3.67225,3.29832 5.50837,4.94747 0.98796,2.02756 1.81161,4.14377 2.96389,6.08266 -0.37281,-0.99246 -0.74562,-1.98492 -1.11843,-2.97738 -0.0877,-0.1517 -0.33342,-0.6156 -0.26308,-0.45512 1.08571,2.47701 5.8847,6.57849 3.31038,7.40744 -2.60274,0.83809 -3.53155,-4.50898 -3.89565,-7.21898 -0.24423,-1.81785 2.33106,2.83251 3.49659,4.24877 0.57526,1.12988 1.42198,2.15868 1.72577,3.38964 0.64098,2.59727 1.02361,5.27873 1.0736,7.95346 0.0269,1.43856 -0.60074,2.81497 -0.84584,4.23275 -0.0368,0.21291 0.27757,-0.40178 0.21955,-0.60992 -1.22818,-4.40609 -3.41691,-8.58179 -4.04464,-13.11258 -0.17647,-1.27375 1.74681,1.88758 2.62022,2.83137 2.83374,3.83122 3.23402,3.91606 4.19136,11.17766 0.24733,1.87604 -0.5448,3.74515 -0.80499,5.61944 -0.0209,0.15028 -0.0651,0.60288 -0.038,0.45359 0.0747,-0.41222 0.14193,-0.82577 0.21289,-1.23865 0.75525,5.14173 -1.43043,9.98255 -3.20951,14.68114 -0.26472,0.6991 0.61611,-1.3688 0.81458,-2.0895 -0.60715,2.459 -1.2143,4.9181 -1.82145,7.3772 -0.23826,0.6193 -0.53654,1.2187 -0.71479,1.8578 -0.0676,0.2425 0.31574,-0.4095 0.37885,-0.6532 0.60388,-2.3316 -0.0376,-4.1683 0.19746,-3.5051 0.2737,0.7721 0.22018,1.6236 0.33027,2.4354 0.37195,2.2315 0.0799,4.4758 0.0896,6.7155 3.9e-4,-0.084 -7.8e-4,-0.3352 10e-4,-0.2514 0.0323,1.391 0.0276,2.7811 0.0224,4.1723 0.52996,7.6282 -4.23364,13.9621 -10.54832,17.6262 2.67442,-4.1418 3.43919,-10.6106 8.02326,-12.4254 3.7767,-1.4952 -3.48119,7.3537 -4.86169,11.1738 -0.60741,1.6808 2.06004,-2.5769 1.87501,-2.4311 -3.79742,2.9924 -8.04314,5.5673 -11.16317,9.2605 -1.42826,1.6907 3.93655,-2.024 5.90483,-3.036 0.92407,-1.2307 2.16736,-2.2769 2.77222,-3.692 0.84405,-1.9747 2.42535,-8.1999 1.4854,-6.269 -3.85838,7.9261 -5.65734,17.6713 -2.09343,6.3227 -1.07974,-3.8189 -3.31298,-7.4887 -3.23921,-11.4567 0.0446,-2.3973 2.51705,4.1198 3.3337,6.3742 0.52167,1.4401 1.50576,3.2998 0.62438,4.5525 -4.07407,5.7903 -10.99571,9.3154 -14.64883,15.3801 -1.24524,2.0673 4.69857,-1.2696 6.83052,-2.4006 1.0632,-0.564 1.69147,-1.7126 2.5372,-2.5689 0.83758,-2.6371 2.48836,-5.1444 2.51273,-7.9112 0.0252,-2.8607 -2.34467,-5.3879 -2.37042,-8.2487 -2.7e-4,-0.031 5.37434,9.6442 3.20101,10.1265 -9.86625,2.1896 -20.19927,0.7338 -30.29891,1.1007 0,0 30.01705,-4.1647 30.01705,-4.1647 l 0,0 c -10.00757,1.0305 -20.29633,0.5204 -30.0227,3.0915 -1.43202,0.3786 3.41419,10.7522 2.64636,7.7405 -3.8105,-14.9458 -5.02936,-4.3962 -0.96107,-18.4527 2.00161,-2.331 16.14244,-19.5712 12.69413,-8.4461 -1.93407,6.2399 -8.95787,9.6166 -12.43912,15.1445 -0.65477,1.0397 0.14653,2.498 0.61255,3.6349 0.93795,2.2882 12.88023,21.3004 -1.08931,-7.3386 1.11368,-3.7056 0.95265,-4.3952 2.56157,-7.0246 0.60228,-0.9843 2.01893,-4.0347 1.91217,-2.8857 -0.30826,3.3177 0.2215,7.8061 -2.54228,9.6672 -4.04828,2.7261 3.47396,-15.604 4.69951,-13.867 0.19539,-0.1204 25.27148,-16.3026 -1.59672,4.0688 -0.18114,0.1373 4.35889,-9.5863 4.14804,-7.0099 -0.52997,6.4759 -12.48564,25.8588 4.67754,-4.7506 -4.24458,2.7202 -5.75493,17.4047 -5.49836,9.0022 0.005,-1.2667 0.0185,-2.5339 -0.0238,-3.8002 0.002,-0.9541 0.0675,-5.8989 0.18401,-2.4476 0.006,0.1818 -0.0286,-0.3625 -0.043,-0.5438 -0.43849,-5.5585 -0.71508,-7.2998 0.88651,-12.8978 0.20454,-0.715 0.547,-2.78035 0.80203,-2.08181 0.40011,1.09596 -0.19238,2.32551 -0.28856,3.48821 0.15702,-1.84451 0.13358,-3.71337 0.47107,-5.53353 0.0242,-0.1307 3.6086,-13.18646 2.05218,-2.4913 -0.22272,1.53043 0.10989,-6.56542 -0.12765,-4.63791 0.17867,-2.74566 0.0521,-2.96877 0.48299,-5.00512 0.15878,-0.75047 0.43933,-3.00657 0.51396,-2.24313 0.42781,4.37657 -2.10936,6.96401 2.61766,11.13788 5.20456,3.71922 -8.03859,-12.17695 -4.70638,-17.36092 0.47803,-0.74368 -0.458,1.74746 -0.36641,2.62676 0.49431,4.74552 0.57317,4.4547 2.27259,7.33046 3.21093,3.12278 7.197,7.26308 -3.94643,-7.06058 -1.1518,-1.48051 2.04092,3.17549 2.73428,4.91843 0.32863,0.82612 -1.1775,-1.34769 -1.62048,-2.11856 -0.99635,-1.73387 -2.33983,-3.39644 -2.681,-5.36687 -0.30072,-1.73681 1.70234,3.08704 2.55351,4.63056 1.25739,0.92722 4.92571,3.83529 3.77217,2.78166 -2.05153,-1.87384 -4.29591,-3.52543 -6.47449,-5.24992 -0.35271,-0.27919 1.23796,1.29045 0.99453,0.91218 -16.30397,-25.33485 2.08248,4.65341 -6.14418,-9.35232 0.67353,1.02269 1.20049,2.15868 2.02059,3.06806 0.55819,0.61897 2.65618,2.00573 2.04448,1.43958 -7.87018,-7.28423 -4.01126,-1.43517 -9.2526,-11.9245 -0.2418,-0.4839 0.45403,1.44247 0.99074,1.28534 -1.28686,-3.41701 -2.65535,-6.80438 -3.86059,-10.25102 -0.67112,-1.91919 0.61037,-6.94556 0,-8.9651 0,-6.77644 0,-13.55288 0,-20.32932 0,0 30.30457,0 30.30457,0 z" />
            <path
               style="fill:#e3dbdb;fill-opacity:1;stroke:none"
               id="path3068"
               d="m 312.13714,984.68196 c 2.83811,2.60597 2.35695,2.24005 5.31529,4.65797 0.70221,0.57393 2.97663,2.01786 2.12996,1.69283 -1.30107,-0.49947 -2.59852,-1.20028 -3.53514,-2.23226 -0.30359,-0.33451 3.95006,1.44422 1.29809,0.35081 -0.13666,-0.0587 -0.55422,-0.21251 -0.40998,-0.1762 9.97785,2.51189 5.51333,0.62613 12.52247,4.95956 0.86845,0.53693 -1.60933,-1.32117 -2.57033,-1.66611 -1.63295,-0.58612 -6.60355,-1.93321 -5.09078,-1.08374 3.25,1.82498 6.94261,2.71523 10.41391,4.07285 5.48688,5.35583 0.5915,0.33122 -2.85645,-1.38541 -1.13092,-0.56304 -2.47319,-0.52373 -3.72204,-0.71449 -0.35111,-0.0536 -1.39635,-0.14571 -1.06541,-0.0168 14.33369,5.58527 16.67369,8.86423 13.50494,4.60999 -8.22274,-5.8483 -17.02065,-0.73764 6.31,17.21524 3.55085,2.7324 -1.02777,-9.0184 -2.73883,-13.1593 -0.65178,-1.5773 -5.0182,-4.55918 -4.01281,-3.18005 2.25574,3.09425 5.21698,5.60665 7.82548,8.40995 1.2692,-0.7161 3.05384,18.2083 -0.74675,14.9669 -28.92315,-24.66803 -16.366,-26.40565 -1.63826,-18.4114 1.68717,0.9158 5.34871,5.3194 3.62449,4.4755 -2.52606,-1.2365 -4.12758,-3.8213 -6.19137,-5.732 4.62552,3.7673 8.2228,5.1221 9.72736,10.9804 0.63575,2.4754 2.23268,9.6321 0.63008,7.6413 -2.19592,-2.728 -0.8209,-7.1835 -2.66036,-10.1635 -4.2572,-6.8966 -10.4672,-4.3686 -16.89833,-4.0104 7.20984,4.5681 15.24585,8.0388 21.6295,13.7043 1.24872,1.1083 0.31258,6.3839 -0.5828,4.9748 -3.15456,-4.9648 -5.9114,-10.5117 -6.64373,-16.3482 -0.42882,-3.4175 5.71401,4.3307 7.14678,7.4628 0.84628,1.8501 1.3282,3.8459 1.9923,5.7689 -1.03431,18.3006 -0.59997,2.5978 -9.73413,-10.1736 -0.97455,-1.3626 -6.33692,-1.7636 -4.96017,-0.8091 4.32829,3.0007 10.23379,3.5586 14.0941,7.1414 2.19637,2.0384 1.86905,5.6942 2.80357,8.5413 -2.35282,-3.9431 -6.10578,-7.3376 -7.05846,-11.8294 -0.81382,-3.8372 6.53132,5.1681 7.67483,8.9203 0.71384,2.3422 2.68934,9.2479 1.30348,7.2293 -10.68235,-15.5604 -6.54748,-12.6349 -3.44573,-10.4772 0.0162,0.01 0.0324,0.017 0.0486,0.025 -0.80615,-0.5576 -1.6123,-1.1152 -2.41845,-1.6729 2.4927,5.6257 3.20825,12.4464 7.47811,16.877 2.9922,3.1049 -1.48409,-8.5919 -3.27411,-12.5147 -1.47402,-3.2304 -7.50658,-3.641 -9.88587,-4.1593 -14.9045,4.6181 -1.28003,-0.5736 -1.6493,-0.1627 -2.89731,3.2239 -5.89677,6.9845 -10.03708,8.2673 -2.64468,0.8194 3.00305,-4.6967 4.92998,-6.6849 1.69911,-1.7531 6.25328,-3.6055 3.38917,-2.4039 -0.0182,0.1492 0.42881,-0.5687 0.31246,-0.4337 -8.14344,9.4473 6.58198,-8.5333 7.75147,-9.9182 5.26968,-5.1254 11.46595,-7.7166 18.79403,-8.0054 1.73172,-0.068 3.72067,-0.53749 5.18452,0.3903 1.67178,1.0594 -4.14985,0.056 -5.33829,-0.1411 -5.13957,5.3454 6.49069,-4.10617 5.25126,-3.346 -0.38226,0.23445 -0.5834,0.72506 -0.99299,0.90758 -0.24664,0.1099 0.24472,-0.502 0.45708,-0.66877 2.53576,-1.99135 5.17024,-3.85367 7.75536,-5.7805 5.19452,-1.92094 9.43891,-1.13194 14.55617,-0.62664 0.48926,0.0483 1.95895,-0.0318 1.47407,0.0495 -1.771,0.29679 -3.54074,0.60108 -5.31111,0.90162 -2.71182,2.48012 -4.47434,7.12221 -8.13544,7.44037 -3.09504,0.26896 3.61811,-5.09794 5.86532,-7.24309 4.69506,-4.48184 12.05398,-4.29727 17.73121,-2.32989 0.5554,0.24016 1.11081,0.48031 1.66621,0.72046 0,0 -13.22362,27.26726 -13.22362,27.26726 l 0,0 c 0.3933,0.1616 0.78661,0.3231 1.17991,0.4847 3.73655,0.5445 8.97156,0.6981 11.60797,-2.5031 1.31291,-1.5942 4.97225,-6.4838 3.34053,-5.2179 -3.46538,2.6885 -5.99608,6.4027 -8.99412,9.6041 -2.0065,0.3929 -3.99532,0.8904 -6.01951,1.1787 -2.02457,0.2883 -12.86386,-0.5205 -3.65776,-1.9332 1.64532,-1.5183 3.167,-3.1827 4.93596,-4.555 0.52601,-0.4081 -0.74063,1.1087 -1.15999,1.6257 -3.26114,4.0209 -7.21196,7.4568 -11.99454,9.5512 -8.45559,4.612 -4.38777,3.3437 -14.80563,4.6778 -0.17286,0.022 0.32779,-0.1221 0.48039,-0.2062 1.13687,-0.6269 1.86094,-1.5707 2.50599,-2.6899 -0.50688,0.6002 -6.11841,7.2497 -6.16823,7.2834 -0.68165,0.4609 1.32029,-2.9888 0.83843,-2.3218 -2.83474,3.924 -3.87991,7.7289 -8.01576,10.3118 -8.33772,5.4689 -1.41065,1.0229 -0.83327,0.315 1.2006,-1.4722 4.51386,-5.9532 2.9486,-4.8768 -4.0968,2.8172 -7.43886,6.6234 -10.80702,10.2808 -0.52679,0.572 1.43814,-0.5922 2.1572,-0.8883 -2.37327,0.6574 -4.74654,1.3147 -7.11981,1.972 -3.56419,-0.6583 -10.28845,-0.9451 -12.61273,-4.9273 -4.08781,-7.0035 -10.1839,-32.8751 2.90512,1.0205 0.3129,0.8103 -3.14365,-2.2363 -3.58427,-2.6165 -5.99905,-5.6588 7.74565,7.6901 -6.33146,-13.2726 -1.25687,-1.8717 0.68034,4.4727 1.33165,6.6311 0.72565,2.4047 6.49902,7.5026 5.42141,5.2337 -2.19532,-4.6223 -5.75724,-8.4613 -8.63586,-12.692 6.17282,15.8133 -2.95416,-2.7335 15.67381,12.4642 1.80483,1.4724 -5.40802,1.0848 -6.95713,-0.6547 -11.15161,-12.522 -10.65334,-27.9426 -10.65095,-14.0521 0.44589,1.2095 1.23546,5.0056 2.88932,6.3976 1.05482,0.8879 3.79164,3.7229 3.35875,2.4139 -2.00021,-6.0485 -4.9327,-11.8022 -8.26,-17.2349 -0.59409,-0.9701 -1.1251,2.731 -0.20954,3.406 6.66694,4.9152 14.37866,8.2271 21.56799,12.3407 -7.55774,0.6623 -13.92861,3.5218 -19.38402,-4.0938 -2.45945,-3.4333 -2.35321,-8.1494 -4.15344,-11.9698 -0.72333,-1.5351 0.3194,3.4118 0.87615,5.0148 1.49965,4.3178 3.67086,4.6506 7.54826,7.2727 -2.76675,-2.1957 -5.35042,-4.6444 -8.30027,-6.5873 -1.08342,-0.7136 1.44429,2.3567 2.64023,2.8594 16.51154,6.9406 20.31424,0.9505 -5.0437,-19.7434 -3.2903,-2.6851 -1.90883,12.4981 -0.49593,12.731 2.30317,2.1381 5.47379,3.6188 6.90953,6.4143 1.0472,2.039 -4.57234,-1.908 -5.63754,-3.9376 -2.36991,-4.5157 -8.85791,-16.6996 -4.1564,-14.7239 9.31596,3.9148 19.10815,25.2673 4.76518,14.4926 -4.37666,-3.5649 -9.42295,-7.0775 9.43671,1.1612 1.10529,0.4829 -2.39336,0.4226 -3.59869,0.3778 -7.30539,-0.271 -5.77732,-1.1466 -13.26604,-5.2879 -0.37856,-0.2093 0.6703,0.547 1.00545,0.8205 2.80839,0.8315 5.94026,0.9441 8.42517,2.4945 1.76996,1.1043 -4.18414,-0.4264 -6.16406,-1.0837 -1.71389,-0.5691 -3.21178,-1.6546 -4.78004,-2.55 -0.72516,-0.4141 1.4354,0.9142 2.24846,1.1045 1.12561,0.2635 9.59791,0.5614 -0.36377,0.1433 -5.18574,-1.0724 -6.77261,-1.434 -12.08604,-4.4068 -1.09011,-0.61 -1.96615,-1.5422 -2.9208,-2.3478 -5.49733,-4.6391 -4.21545,-3.6404 -9.83699,-9.4842 0,0 24.24366,-18.18276 24.24366,-18.18276 z" />
          </g>
        </g>
      </g>
      <text
         transform="scale(0.98488186,1.0153502)"
         id="text3233"
         y="900.33301"
         x="439.76181"
         style="font-size:22px;font-style:normal;font-weight:normal;fill:#000000;fill-opacity:1;stroke:none;font-family:Bitstream Vera Sans"
         xml:space="preserve"><tspan
           y="900.33301"
           x="439.76181"
           id="tspan3235"
           sodipodi:role="line">Compilateurs idoines</tspan></text>
    </g>
    <text
       xml:space="preserve"
       style="font-size:40px;font-style:normal;font-weight:normal;fill:#000000;fill-opacity:1;stroke:none;font-family:Bitstream Vera Sans"
       x="-441.42856"
       y="990.93359"
       id="text4007"><tspan
         sodipodi:role="line"
         id="tspan4009"
         x="-441.42856"
         y="990.93359" /></text>
    <path
       style="fill:none;stroke:#000000;stroke-width:0.98967969px;stroke-linecap:butt;stroke-linejoin:miter;stroke-opacity:1;marker-end:url(#Arrow1Lend)"
       d="m 547.53381,118.17855 0,33.53842"
       id="path4121" />
    <path
       style="fill:none;stroke:#000000;stroke-width:0.76372319;stroke-linecap:butt;stroke-linejoin:miter;stroke-miterlimit:4;stroke-opacity:1;stroke-dasharray:none;marker-end:url(#Arrow1Lend)"
       d="m 547.53381,454.5194 0,44.07319"
       id="path4127" />
    <path
       style="fill:none;stroke:#000000;stroke-width:0.97354734px;stroke-linecap:butt;stroke-linejoin:miter;stroke-opacity:1;marker-end:url(#Arrow1Lend)"
       d="m 548.26326,581.29548 110.67389,77.8087"
       id="path4133" />
    <path
       id="path4416"
       d="M 547.57098,581.28565 437.8168,658.33658"
       style="fill:none;stroke:#000000;stroke-width:0.95595288px;stroke-linecap:butt;stroke-linejoin:miter;stroke-opacity:1;marker-end:url(#Arrow1Lend)" />
    <path
       style="fill:none;stroke:#000000;stroke-width:1.3570869px;stroke-linecap:butt;stroke-linejoin:miter;stroke-opacity:1;marker-end:url(#Arrow1Lend)"
       d="m 547.92531,580.90636 -0.52236,75.83868"
       id="path4418" />
    <path
       id="path4533"
       d="M 370.14403,454.16735 202.57151,562.85528"
       style="fill:none;stroke:#6ee2dc;stroke-width:1.01400958999999991;stroke-linecap:butt;stroke-linejoin:miter;stroke-miterlimit:4;stroke-opacity:1;stroke-dasharray:none;marker-end:url(#Arrow1Lend)" />
    <g
       id="g5105"
       transform="translate(423.25391,-47.477169)">
      <text
         id="text5101"
         y="187.6716"
         x="95.964493"
         style="font-size:12px;font-style:normal;font-weight:normal;fill:#000000;fill-opacity:1;stroke:none;font-family:Bitstream Vera Sans"
         xml:space="preserve"><tspan
           y="187.6716"
           x="95.964493"
           id="tspan5103"
           sodipodi:role="line">3</tspan></text>
    </g>
    <g
       id="g3928"
       transform="translate(43.835725,-164.25786)">
      <rect
         y="727.79572"
         x="-33.537281"
         height="74.751289"
         width="355"
         id="rect3109"
         style="fill:#e9afaf;fill-opacity:1;stroke:none" />
      <text
         transform="scale(0.70070283,1.4271385)"
         id="text3111"
         y="550.8678"
         x="110.43488"
         style="font-size:38.72264862px;font-style:normal;font-weight:normal;fill:#000000;fill-opacity:1;stroke:none;font-family:Bitstream Vera Sans"
         xml:space="preserve"><tspan
           y="550.8678"
           x="110.43488"
           id="tspan3113"
           sodipodi:role="line">MiniVHDL</tspan></text>
    </g>
    <g
       id="g3973"
       transform="translate(305.06888,-138.82163)">
      <path
         sodipodi:type="arc"
         style="fill:#f4d7d7;fill-opacity:1;stroke:none"
         id="path3940"
         sodipodi:cx="142.4315"
         sodipodi:cy="854.37225"
         sodipodi:rx="89.90358"
         sodipodi:ry="86.873116"
         d="m 232.33508,854.37225 c 0,47.9787 -40.2512,86.87312 -89.90358,86.87312 -49.652373,0 -89.903576,-38.89442 -89.903576,-86.87312 0,-47.97869 40.251203,-86.87311 89.903576,-86.87311 47.0913,0 86.20316,35.11323 89.6609,80.49434"
         sodipodi:start="0"
         sodipodi:end="6.2096929"
         sodipodi:open="true"
         transform="matrix(0.51898875,0,0,0.59330782,-191.19075,342.63314)" />
      <text
         transform="scale(0.917334,1.0901155)"
         xml:space="preserve"
         style="font-size:24.82162094px;font-style:normal;font-weight:normal;fill:#000000;fill-opacity:1;stroke:none;font-family:Bitstream Vera Sans"
         x="-162.14981"
         y="785.8739"
         id="text3942"><tspan
           sodipodi:role="line"
           id="tspan3944"
           x="-162.14981"
           y="785.8739">VHDL</tspan></text>
      <path
         style="fill:#e3dbdb;fill-opacity:1;stroke:none"
         id="path3948"
         d="m -107.76698,917.95956 c 0,5.23885 0,10.4777 0,15.71655 -0.60214,3.9291 1.50841,12.62602 -1.52374,1.17788 1.28503,2.17064 3.35538,5.13756 3.32951,7.71715 -0.0129,1.29121 -0.81814,-2.48321 -1.46682,-3.62362 -0.38566,-0.67801 -2.22655,-2.24808 -1.59405,-1.75756 4.13622,3.20775 3.59576,3.14394 6.08412,7.27061 -1.77132,-3.36966 2.55915,2.95745 1.39205,3.00278 -1.60915,0.0625 -2.3467,-2.46562 -2.29739,-3.96868 0.0378,-1.15383 3.5073,3.06609 2.33943,2.68731 -1.40945,-0.45713 -4.4063,-3.72856 -3.16527,-2.95516 1.69967,1.05922 3.04058,2.54993 4.56087,3.82488 0.81802,1.5675 1.499994,3.20354 2.45407,4.70249 -0.308683,-0.76727 -0.617366,-1.53454 -0.926049,-2.3018 -0.07261,-0.11728 -0.276068,-0.47592 -0.217827,-0.35186 0.898957,1.91498 4.872471,5.08582 2.74096,5.72668 -2.155041,0.64793 -2.924087,-3.48588 -3.225558,-5.58098 -0.20222,-1.40537 1.930094,2.18981 2.895141,3.28472 0.476309,0.87351 1.177385,1.66887 1.42892,2.62052 0.530725,2.00795 0.847538,4.08098 0.888929,6.14881 0.02227,1.11214 -0.497406,2.17624 -0.700346,3.27233 -0.03047,0.1646 0.229825,-0.31062 0.181785,-0.47153 -1.016921,-3.40634 -2.829167,-6.63457 -3.348921,-10.13731 -0.146115,-0.98473 1.446341,1.45928 2.169516,2.18893 2.346307,2.9619 2.677735,3.02749 3.470403,8.64142 0.204786,1.45037 -0.451089,2.89537 -0.666524,4.34438 -0.01731,0.11618 -0.0539,0.46609 -0.03146,0.35067 0.06185,-0.31869 0.117516,-0.6384 0.17627,-0.9576 0.62534,3.97506 -1.184381,7.71749 -2.657441,11.34996 -0.219185,0.54048 0.510133,-1.05821 0.674464,-1.61538 -0.502714,1.90104 -1.005428,3.80217 -1.508142,5.70329 -0.197277,0.47878 -0.44425,0.94218 -0.591839,1.43627 -0.05597,0.18747 0.26143,-0.31659 0.313684,-0.50499 0.500007,-1.80256 -0.03113,-3.22251 0.163495,-2.70979 0.226621,0.59691 0.182307,1.2552 0.27346,1.88281 0.307971,1.72516 0.06616,3.46023 0.07419,5.19174 3.23e-4,-0.0649 -6.46e-4,-0.25915 8.28e-4,-0.19436 0.02674,1.07538 0.02285,2.15006 0.01855,3.2256 0.438801,5.89734 -3.50541,10.79408 -8.733898,13.62678 2.21439,-3.202 2.84761,-8.20304 6.643174,-9.60606 3.127069,-1.15593 -2.882384,5.68516 -4.025424,8.63846 -0.50293,1.2994 1.70569,-1.9922 1.55249,-1.8795 -3.14423,2.3134 -6.65964,4.3041 -9.24299,7.1593 -1.18259,1.3071 3.25942,-1.5648 4.88913,-2.3471 0.76512,-0.9515 1.79456,-1.7603 2.29537,-2.8543 0.69887,-1.5267 2.00817,-6.33935 1.2299,-4.8466 -3.1947,6.1277 -4.68422,13.6617 -1.73334,4.8881 -0.89401,-2.9524 -2.74311,-5.7895 -2.68203,-8.85716 0.0369,-1.85335 2.08409,3.18501 2.76027,4.92786 0.43194,1.1134 1.24675,2.5511 0.51698,3.5196 -3.37329,4.4764 -9.10434,7.2017 -12.12908,11.8903 -1.03105,1.5982 3.89037,-0.9815 5.6556,-1.8559 0.88032,-0.436 1.40052,-1.324 2.10077,-1.986 0.69351,-2.0388 2.06034,-3.9772 2.08052,-6.1162 0.0209,-2.2116 -1.94136,-4.1653 -1.96269,-6.377 -2.2e-4,-0.024 4.4499,7.4559 2.65041,7.8288 -8.16916,1.6927 -16.72479,0.5673 -25.08719,0.8509 0,0 24.85381,-3.2197 24.85381,-3.2197 l 0,0 c -8.28616,0.7967 -16.80515,0.4023 -24.85849,2.39 -1.18569,0.2927 2.82692,8.3125 2.19116,5.9842 -3.15505,-11.5546 -4.16426,-3.3987 -0.79575,-14.26576 1.65731,-1.80209 13.36577,-15.13046 10.51061,-6.52967 -1.60139,4.82406 -7.41703,7.43453 -10.29947,11.70823 -0.54214,0.8037 0.12133,1.9312 0.50719,2.8101 0.77661,1.769 10.6647,16.4673 -0.90194,-5.6735 0.92212,-2.86476 0.78878,-3.39789 2.12095,-5.43067 0.49869,-0.76096 1.67166,-3.11922 1.58326,-2.23093 -0.25524,2.56491 0.1834,6.0349 -2.10498,7.4737 -3.35193,2.1075 2.8764,-12.06343 3.89115,-10.72056 0.16178,-0.0931 20.92452,-12.60351 -1.32207,3.14558 -0.14998,0.10615 3.60911,-7.41115 3.43453,-5.41934 -0.43881,5.00651 -10.33798,19.99142 3.87296,-3.67268 -3.51447,2.10299 -4.76503,13.45554 -4.55259,6.95959 0.004,-0.97929 0.0153,-1.95896 -0.0197,-2.93793 0.002,-0.73761 0.0559,-4.56043 0.15235,-1.89223 0.005,0.14054 -0.0237,-0.28025 -0.0356,-0.42042 -0.36307,-4.29726 -0.59208,-5.64346 0.73402,-9.97126 0.16936,-0.55276 0.45291,-2.14948 0.66407,-1.60944 0.33129,0.84728 -0.15928,1.79784 -0.23892,2.69673 0.13001,-1.42599 0.1106,-2.8708 0.39004,-4.27797 0.02,-0.10104 2.98788,-10.19442 1.69918,-1.92601 -0.18441,1.18317 0.091,-5.07572 -0.10569,-3.58556 0.14794,-2.12267 0.0431,-2.29515 0.39991,-3.86945 0.13147,-0.58019 0.36376,-2.32438 0.42556,-1.73416 0.35422,3.38352 -1.74653,5.38386 2.16739,8.61067 4.30932,2.87532 -6.65587,-9.41398 -3.89683,-13.42169 0.3958,-0.57494 -0.37922,1.35096 -0.30339,2.03074 0.40929,3.66875 0.47458,3.44392 1.88168,5.66716 2.65862,2.41422 5.95905,5.61508 -3.2676,-5.45852 -0.95368,-1.14458 1.68986,2.45497 2.26396,3.80243 0.2721,0.63867 -0.97496,-1.04189 -1.34174,-1.63785 -0.82497,-1.34045 -1.93736,-2.62578 -2.21984,-4.14912 -0.249,-1.34272 1.40952,2.38659 2.11428,3.57988 1.0411,0.71683 4.07843,2.96505 3.12331,2.15049 -1.69864,-1.44866 -3.55697,-2.7255 -5.36081,-4.0587 -0.29204,-0.21584 1.02502,0.99765 0.82346,0.70521 -13.49952,-19.58633 1.72428,3.59754 -5.08731,-7.23026 0.55767,0.79063 0.99399,1.66887 1.67302,2.37191 0.46218,0.47852 2.19929,1.55062 1.69281,1.11293 -6.51643,-5.63142 -3.32128,-1.10952 -7.66106,-9.2188 -0.2002,-0.37411 0.37594,1.11517 0.82033,0.99369 -1.06551,-2.64168 -2.19861,-5.26045 -3.19653,-7.92504 -0.55568,-1.48373 0.50538,-5.3696 0,-6.93091 0,-5.23885 0,-10.4777 0,-15.71655 0,0 25.09187,0 25.09187,0 z" />
      <path
         style="fill:#e3dbdb;fill-opacity:1;stroke:none"
         id="path3950"
         d="m -149.58677,964.81637 c 2.34993,2.01467 1.95153,1.73178 4.40101,3.60107 0.58142,0.4437 2.46462,1.56 1.76358,1.30872 -1.07727,-0.38614 -2.15154,-0.92793 -2.92706,-1.72575 -0.25137,-0.25861 3.27061,1.11652 1.07481,0.27121 -0.11315,-0.0454 -0.45889,-0.16429 -0.33946,-0.13622 8.26156,1.94194 4.56498,0.48406 10.36848,3.83423 0.71906,0.41509 -1.33251,-1.0214 -2.12821,-1.28807 -1.35207,-0.45313 -5.46767,-1.49456 -4.21511,-0.83784 2.69096,1.41089 5.74841,2.09914 8.62261,3.14871 4.54308,4.14059 0.48975,0.25607 -2.36511,-1.07105 -0.93639,-0.43529 -2.04778,-0.4049 -3.08182,-0.55237 -0.29071,-0.0414 -1.15616,-0.11265 -0.88214,-0.013 11.86814,4.31796 13.80564,6.85292 11.18195,3.56397 -6.80835,-4.52131 -14.09293,-0.57027 5.22461,13.30907 2.94007,2.11241 -0.85098,-6.97211 -2.26772,-10.17343 -0.53967,-1.21941 -4.15502,-3.52469 -3.32257,-2.45849 1.86773,2.39216 4.31961,4.33449 6.47942,6.50172 1.05089,-0.55362 2.52855,14.0768 -0.6183,11.57088 -23.94807,-19.07081 -13.55088,-20.41416 -1.35646,-14.23382 1.39696,0.708 4.42867,4.11242 3.00104,3.46 -2.09155,-0.95594 -3.4176,-2.95424 -5.12639,-4.4314 3.82988,2.91249 6.80839,3.95989 8.05415,8.48893 0.5264,1.91373 1.84864,7.44656 0.5217,5.90747 -1.8182,-2.10901 -0.6797,-5.55355 -2.20275,-7.85738 -3.52492,-5.33175 -8.66673,-3.37736 -13.99164,-3.10043 5.96967,3.53159 12.6234,6.21478 17.909,10.59477 1.03393,0.85682 0.25881,4.93538 -0.48255,3.846 -2.61195,-3.83827 -4.89458,-8.12657 -5.50094,-12.63876 -0.35506,-2.64206 4.73114,3.34806 5.91746,5.76948 0.70071,1.43031 1.09973,2.97326 1.6496,4.45992 -0.8564,14.14819 -0.49677,2.00836 -8.05976,-7.86519 -0.80691,-1.05342 -5.2469,-1.36343 -4.10697,-0.62551 3.58378,2.31984 8.47348,2.75115 11.66977,5.521 1.81857,1.57589 1.54756,4.40218 2.32133,6.60327 -1.94811,-3.04841 -5.05552,-5.67269 -5.84433,-9.14529 -0.67384,-2.96653 5.40786,3.99545 6.35468,6.89627 0.59105,1.81075 2.22674,7.14954 1.07927,5.58894 -8.84488,-12.0297 -5.42125,-9.768 -2.85303,-8.09989 0.0134,0.008 0.0268,0.0131 0.0402,0.0193 -0.66749,-0.43108 -1.33497,-0.86216 -2.00245,-1.29332 2.06393,4.34922 2.65639,9.62231 6.19179,13.04761 2.47751,2.4004 -1.22881,-6.64241 -2.71093,-9.67512 -1.22047,-2.49742 -6.21537,-2.81485 -8.18539,-3.21555 -12.34078,3.57025 -1.05986,-0.44345 -1.36561,-0.12578 -2.39894,2.49239 -4.88246,5.3997 -8.3106,6.39143 -2.18977,0.63348 2.4865,-3.63101 4.08198,-5.16808 1.40684,-1.35532 5.17765,-2.78741 2.80619,-1.85845 -0.0151,0.11534 0.35505,-0.43966 0.25872,-0.33529 -6.74269,7.30368 5.44981,-6.59708 6.41813,-7.66775 4.36325,-3.96243 9.49369,-5.96568 15.56127,-6.18896 1.433845,-0.0526 3.080675,-0.41553 4.292728,0.30174 1.384216,0.81902 -3.436038,0.0433 -4.420048,-0.10908 -4.25551,4.13252 5.374223,-3.17447 4.347988,-2.58679 -0.316508,0.18126 -0.48305,0.56055 -0.822186,0.70165 -0.204215,0.085 0.202626,-0.38809 0.378458,-0.51702 2.099583,-1.53951 4.280905,-2.97927 6.421358,-4.4689 4.301009,-1.48507 7.81532,-0.8751 12.052359,-0.48445 0.405102,0.0373 1.621991,-0.0246 1.220515,0.0383 -1.46637,0.22945 -2.931696,0.46469 -4.397545,0.69704 -2.245359,1.91738 -3.704707,5.50617 -6.73606,5.75214 -2.562662,0.20793 2.995758,-3.94121 4.856424,-5.59962 3.887462,-3.46491 9.980572,-3.32222 14.68126,-1.80124 0.459866,0.18567 0.919739,0.37133 1.379605,0.55699 0,0 -10.949022,21.08027 -10.949022,21.08027 l 0,0 c 0.325649,0.12493 0.651305,0.24978 0.976954,0.37472 3.093825,0.42095 7.428359,0.5397 9.61128,-1.93515 1.087076,-1.23247 4.116971,-5.01261 2.765924,-4.03394 -2.869299,2.07847 -4.964693,4.94991 -7.447039,7.42491 -1.661361,0.30375 -3.308084,0.68836 -4.984092,0.91125 -1.676323,0.22288 -10.651144,-0.4024 -3.028588,-1.49456 1.362308,-1.17379 2.622243,-2.46053 4.086924,-3.52146 0.435531,-0.3155 -0.613234,0.85714 -0.96046,1.25683 -2.70019,3.10855 -5.971428,5.76484 -9.931355,7.38401 -7.001142,3.56551 -3.633029,2.58501 -12.25891,3.61641 -0.143126,0.017 0.271407,-0.094 0.397758,-0.1594 0.941317,-0.48468 1.540839,-1.21433 2.074934,-2.07958 -0.419691,0.46401 -5.065984,5.60478 -5.107234,5.63078 -0.5644,0.3563 1.09319,-2.3106 0.69421,-1.795 -2.34713,3.0337 -3.21252,5.9752 -6.63696,7.9721 -6.90355,4.228 -1.16801,0.7908 -0.68994,0.2435 0.99408,-1.1382 3.73743,-4.6024 2.44141,-3.7703 -3.39211,2.178 -6.1593,5.1206 -8.9481,7.9481 -0.43618,0.4422 1.19076,-0.4578 1.78614,-0.6867 -1.96505,0.5082 -3.93009,1.0164 -5.89513,1.5245 -2.95112,-0.5089 -8.51873,-0.7306 -10.44321,-3.8093 -3.38467,-5.4144 -8.43217,-25.41565 2.40541,0.789 0.25907,0.6264 -2.60291,-1.7289 -2.96774,-2.0228 -4.96715,-4.3748 6.41332,5.9452 -5.24239,-10.26106 -1.04067,-1.44701 0.56332,3.45786 1.1026,5.12646 0.60083,1.8591 5.38112,5.8003 4.48887,4.0462 -1.8177,-3.5735 -4.76694,-6.5414 -7.15041,-9.81217 5.11104,12.22527 -2.44601,-2.11326 12.97776,9.63607 1.49438,1.1383 -4.47779,0.8386 -5.76043,-0.5062 -9.23342,-9.6807 -8.82086,-21.60234 -8.81888,-10.86362 0.36919,0.93507 1.02295,3.86982 2.39233,4.94602 0.87338,0.6864 3.13944,2.8781 2.78101,1.8661 -1.65616,-4.67605 -4.08423,-9.12422 -6.8392,-13.32423 -0.4919,-0.74998 -0.93157,2.11133 -0.1735,2.63317 5.52016,3.79993 11.90539,6.36036 17.85808,9.54056 -6.25773,0.512 -11.53275,2.7227 -16.04977,-3.1649 -2.0364,-2.65427 -1.94843,-6.30028 -3.43901,-9.25383 -0.59891,-1.18678 0.26446,2.63766 0.72545,3.87694 1.24169,3.33808 3.03943,3.59537 6.24988,5.62249 -2.29084,-1.69747 -4.43009,-3.59056 -6.87254,-5.09261 -0.89706,-0.55169 1.19586,1.82196 2.18608,2.21059 13.67139,5.36582 16.81999,0.73483 -4.17613,-15.26358 -2.72433,-2.07585 -1.58049,9.66226 -0.41062,9.84231 1.907,1.65296 4.53224,2.79769 5.72102,4.95888 0.86707,1.57635 -3.78585,-1.47507 -4.66783,-3.04415 -1.96226,-3.49108 -7.33426,-12.91043 -3.44145,-11.38302 7.71351,3.02653 15.82135,19.53408 3.94552,11.20421 -3.62383,-2.75602 -7.80211,-5.47161 7.81349,0.89772 0.91517,0.37333 -1.98167,0.32671 -2.97967,0.29207 -6.04879,-0.20951 -4.78357,-0.88643 -10.98415,-4.08806 -0.31344,-0.16181 0.555,0.42288 0.8325,0.63433 2.32532,0.64283 4.91848,0.72988 6.97596,1.92849 1.46551,0.85373 -3.46443,-0.32965 -5.10378,-0.83781 -1.41908,-0.43997 -2.65932,-1.27917 -3.95782,-1.9714 -0.60043,-0.32014 1.18849,0.70677 1.8617,0.85389 0.93199,0.20371 7.94697,0.43402 -0.3012,0.11078 -4.29374,-0.82907 -5.60765,-1.10862 -10.00712,-3.40688 -0.9026,-0.47159 -1.62795,-1.19228 -2.41839,-1.81508 -4.55173,-3.58648 -3.49035,-2.81439 -8.14493,-7.33222 0,0 20.0735,-14.05706 20.0735,-14.05706 z" />
    </g>
    <text
       xml:space="preserve"
       style="font-size:40px;font-style:normal;font-weight:normal;fill:#000000;fill-opacity:1;stroke:none;font-family:Bitstream Vera Sans"
       x="74.285751"
       y="913.54053"
       id="text4036"><tspan
         sodipodi:role="line"
         id="tspan4038"
         x="74.285751"
         y="913.54053"
         style="font-size:22px">Simulation/Synthèse</tspan></text>
    <path
       style="fill:none;stroke:#6ee2dc;stroke-width:0.90205394999999999px;stroke-linecap:butt;stroke-linejoin:miter;stroke-opacity:1;marker-mid:none;marker-end:url(#Arrow1Lend)"
       d="m 187.79844,638.25885 0,19.52229"
       id="path4137" />
    <path
       style="fill:none;stroke:#000000;stroke-width:0.5px;stroke-linecap:butt;stroke-linejoin:miter;stroke-opacity:1;marker-mid:none;marker-end:url(#Arrow1Lend)"
       d="m 400.77548,244.66051 c -42.47845,14.38154 -4.94894,32.31981 -4.94894,32.31981"
       id="path3007" />
    <path
       id="path4155"
       d="m 400.77548,336.92419 c -42.47845,14.38154 -4.94894,32.31981 -4.94894,32.31981"
       style="fill:none;stroke:#000000;stroke-width:0.5px;stroke-linecap:butt;stroke-linejoin:miter;stroke-opacity:1;marker-mid:none;marker-end:url(#Arrow1Lend)" />
    <path
       id="path2986"
       d="m 724.95109,51.0183 c 32.02263,14.410657 3.73079,32.385246 3.73079,32.385246"
       style="fill:none;stroke:#000000;stroke-width:0.43456361px;stroke-linecap:butt;stroke-linejoin:miter;stroke-opacity:1;marker-mid:none;marker-end:url(#Arrow1Lend)" />
    <path
       style="fill:none;stroke:#000000;stroke-width:0.57352173px;stroke-linecap:butt;stroke-linejoin:miter;stroke-opacity:1;marker-mid:none;marker-end:url(#Arrow1Lend)"
       d="m 321.28356,20.489909 c 21.73861,-36.97449 48.85342,-4.307705 48.85342,-4.307705"
       id="path5439" />
    <g
       id="g5522"
       transform="translate(186.87822,-26.428559)">
      <path
         sodipodi:type="arc"
         style="fill:#00ffff;fill-opacity:1;stroke:none"
         id="path5513"
         sodipodi:cx="99.285713"
         sodipodi:cy="188.79076"
         sodipodi:rx="13.571428"
         sodipodi:ry="13.571428"
         d="m 112.85714,188.79076 c 0,7.49529 -6.07613,13.57142 -13.571427,13.57142 -7.495293,0 -13.571428,-6.07613 -13.571428,-13.57142 0,-7.4953 6.076135,-13.57143 13.571428,-13.57143 7.108687,0 13.012827,5.48543 13.534797,12.57493"
         sodipodi:start="0"
         sodipodi:end="6.2096929"
         sodipodi:open="true"
         transform="translate(75.42875,47.785998)" />
      <text
         xml:space="preserve"
         style="font-size:12px;font-style:normal;font-weight:normal;fill:#000000;fill-opacity:1;stroke:none;font-family:Bitstream Vera Sans"
         x="170.79161"
         y="240.95078"
         id="text5515"><tspan
           sodipodi:role="line"
           id="tspan5517"
           x="170.79161"
           y="240.95078">A</tspan></text>
    </g>
    <path
       id="path5527"
       d="m 400.85866,280.11146 c -42.77774,10.85962 -4.98381,24.40495 -4.98381,24.40495"
       style="fill:none;stroke:#6ee2dc;stroke-width:1.13363326;stroke-linecap:butt;stroke-linejoin:miter;stroke-miterlimit:4;stroke-opacity:1;stroke-dasharray:none;marker-mid:none;marker-end:url(#Arrow1Lend)" />
    <path
       style="fill:none;stroke:#6ee2dc;stroke-width:1.29999995;stroke-linecap:butt;stroke-linejoin:miter;stroke-miterlimit:4;stroke-opacity:1;stroke-dasharray:none;marker-mid:none;marker-end:url(#Arrow1Lend)"
       d="m 400.0612,193.98829 c -42.47845,14.38154 -4.94894,32.31981 -4.94894,32.31981"
       id="path5529" />
    <g
       id="g5531"
       transform="translate(39.02108,79.72703)">
      <g
         id="g5539"
         transform="translate(147.85714,-25)">
        <path
           sodipodi:type="arc"
           style="fill:#00ffff;fill-opacity:1;stroke:none"
           id="path5533"
           sodipodi:cx="99.285713"
           sodipodi:cy="188.79076"
           sodipodi:rx="13.571428"
           sodipodi:ry="13.571428"
           d="m 112.85714,188.79076 c 0,7.49529 -6.07613,13.57142 -13.571427,13.57142 -7.495293,0 -13.571428,-6.07613 -13.571428,-13.57142 0,-7.4953 6.076135,-13.57143 13.571428,-13.57143 7.108687,0 13.012827,5.48543 13.534797,12.57493"
           sodipodi:start="0"
           sodipodi:end="6.2096929"
           sodipodi:open="true"
           transform="translate(75.42875,47.785998)" />
        <text
           xml:space="preserve"
           style="font-size:12px;font-style:normal;font-weight:normal;fill:#000000;fill-opacity:1;stroke:none;font-family:Bitstream Vera Sans"
           x="170.79161"
           y="240.95078"
           id="text5535"><tspan
             sodipodi:role="line"
             id="tspan5537"
             x="170.79161"
             y="240.95078">B</tspan></text>
      </g>
    </g>
    <g
       transform="translate(-44.821579,277.71692)"
       id="g5580">
      <g
         transform="translate(147.85714,-25)"
         id="g5582">
        <path
           transform="translate(75.42875,47.785998)"
           sodipodi:open="true"
           sodipodi:end="6.2096929"
           sodipodi:start="0"
           d="m 112.85714,188.79076 c 0,7.49529 -6.07613,13.57142 -13.571427,13.57142 -7.495293,0 -13.571428,-6.07613 -13.571428,-13.57142 0,-7.4953 6.076135,-13.57143 13.571428,-13.57143 7.108687,0 13.012827,5.48543 13.534797,12.57493"
           sodipodi:ry="13.571428"
           sodipodi:rx="13.571428"
           sodipodi:cy="188.79076"
           sodipodi:cx="99.285713"
           id="path5584"
           style="fill:#00ffff;fill-opacity:1;stroke:none"
           sodipodi:type="arc" />
        <text
           id="text5586"
           y="240.95078"
           x="170.79161"
           style="font-size:12px;font-style:normal;font-weight:normal;fill:#000000;fill-opacity:1;stroke:none;font-family:Bitstream Vera Sans"
           xml:space="preserve"><tspan
             y="240.95078"
             x="170.79161"
             id="tspan5588"
             sodipodi:role="line">D</tspan></text>
      </g>
    </g>
    <text
       xml:space="preserve"
       style="font-size:12px;font-style:normal;font-weight:normal;fill:#000000;fill-opacity:1;stroke:none;font-family:Bitstream Vera Sans"
       x="126.26907"
       y="656.38239"
       id="text5590"><tspan
         sodipodi:role="line"
         id="tspan5592"
         x="126.26907"
         y="656.38239" /></text>
    <g
       id="g5594"
       transform="translate(39.02108,114.07221)">
      <g
         id="g5596"
         transform="translate(147.85714,-25)">
        <path
           sodipodi:type="arc"
           style="fill:#00ffff;fill-opacity:1;stroke:none"
           id="path5598"
           sodipodi:cx="99.285713"
           sodipodi:cy="188.79076"
           sodipodi:rx="13.571428"
           sodipodi:ry="13.571428"
           d="m 112.85714,188.79076 c 0,7.49529 -6.07613,13.57142 -13.571427,13.57142 -7.495293,0 -13.571428,-6.07613 -13.571428,-13.57142 0,-7.4953 6.076135,-13.57143 13.571428,-13.57143 7.108687,0 13.012827,5.48543 13.534797,12.57493"
           sodipodi:start="0"
           sodipodi:end="6.2096929"
           sodipodi:open="true"
           transform="translate(75.42875,47.785998)" />
        <text
           xml:space="preserve"
           style="font-size:12px;font-style:normal;font-weight:normal;fill:#000000;fill-opacity:1;stroke:none;font-family:Bitstream Vera Sans"
           x="170.79161"
           y="240.95078"
           id="text5600"><tspan
             sodipodi:role="line"
             id="tspan5602"
             x="170.79161"
             y="240.95078">C</tspan></text>
      </g>
    </g>
    <g
       id="g5659"
       transform="translate(-13.660758,22.223356)">
      <path
         sodipodi:type="arc"
         style="fill:#00ffff;fill-opacity:1;stroke:none"
         id="path5616"
         sodipodi:cx="99.285713"
         sodipodi:cy="188.79076"
         sodipodi:rx="13.571428"
         sodipodi:ry="13.571428"
         d="m 112.85714,188.79076 c 0,7.49529 -6.07613,13.57142 -13.571427,13.57142 -7.495293,0 -13.571428,-6.07613 -13.571428,-13.57142 0,-7.4953 6.076135,-13.57143 13.571428,-13.57143 7.108687,0 13.012827,5.48543 13.534797,12.57493"
         sodipodi:start="0"
         sodipodi:end="6.2096929"
         sodipodi:open="true"
         transform="translate(-55.891086,192.41661)" />
      <text
         id="text5626"
         y="386.72495"
         x="61.619305"
         style="font-size:20px;font-style:normal;font-weight:normal;fill:#000000;fill-opacity:1;stroke:none;font-family:Bitstream Vera Sans"
         xml:space="preserve"><tspan
           y="386.72495"
           x="61.619305"
           id="tspan5628"
           sodipodi:role="line">Compilation vers VHDL.</tspan></text>
    </g>
    <text
       xml:space="preserve"
       style="font-size:30px;font-style:normal;font-weight:normal;fill:#000000;fill-opacity:1;stroke:none;font-family:Bitstream Vera Sans"
       x="101.01525"
       y="352.32648"
       id="text5630"><tspan
         sodipodi:role="line"
         id="tspan5632"
         x="101.01525"
         y="352.32648" /></text>
    <path
       style="fill:none;stroke:#6ee2dc;stroke-width:1.19887972;stroke-linecap:butt;stroke-linejoin:miter;stroke-miterlimit:4;stroke-opacity:1;stroke-dasharray:none;marker-mid:none;marker-end:url(#Arrow1Lend)"
       d="m 400.82604,306.40805 c -42.66037,12.17907 -4.97013,27.37017 -4.97013,27.37017"
       id="path3011" />
    <g
       id="g3013"
       transform="translate(-179.17187,442.37179)">
      <g
         id="g3015"
         transform="translate(147.85714,-25)">
        <path
           sodipodi:type="arc"
           style="fill:#00ffff;fill-opacity:1;stroke:none"
           id="path3017"
           sodipodi:cx="99.285713"
           sodipodi:cy="188.79076"
           sodipodi:rx="13.571428"
           sodipodi:ry="13.571428"
           d="m 112.85714,188.79076 c 0,7.49529 -6.07613,13.57142 -13.571427,13.57142 -7.495293,0 -13.571428,-6.07613 -13.571428,-13.57142 0,-7.4953 6.076135,-13.57143 13.571428,-13.57143 7.108687,0 13.012827,5.48543 13.534797,12.57493"
           sodipodi:start="0"
           sodipodi:end="6.2096929"
           sodipodi:open="true"
           transform="translate(75.42875,47.785998)" />
        <text
           xml:space="preserve"
           style="font-size:12px;font-style:normal;font-weight:normal;fill:#000000;fill-opacity:1;stroke:none;font-family:Bitstream Vera Sans"
           x="170.79161"
           y="240.95078"
           id="text3019"><tspan
             sodipodi:role="line"
             id="tspan3021"
             x="170.79161"
             y="240.95078">E</tspan></text>
      </g>
    </g>
  </g>
</svg>
